<svg width="528" height="428" viewBox="0 0 1280 1280" fill="none" xmlns="http://www.w3.org/2000/svg">
<g filter="url(#filter0_d_67_2)">
<rect x="40" y="20" width="1200" height="1200" rx="600" fill="#0EA5E9"/>
</g>
<path d="M669.597 727.847C669.034 723.623 667.339 719.629 664.693 716.288C662.046 712.948 658.546 710.385 654.563 708.869C650.58 707.354 646.261 706.944 642.063 707.681C637.866 708.418 633.946 710.276 630.717 713.058C627.489 715.84 625.072 719.443 623.722 723.485C622.372 727.527 622.14 731.859 623.05 736.023C623.96 740.186 625.978 744.027 628.891 747.138C631.803 750.249 635.503 752.515 639.597 753.697C642.947 754.847 643.147 756.697 643.147 759.447C643.147 814.28 643.147 869.13 643.147 923.997C643.045 925.393 642.845 926.779 642.547 928.147L640.697 928.547C639.097 924.647 637.297 920.797 635.697 916.797C632.647 907.747 630.297 898.447 626.847 889.547C605.597 834.297 578.697 781.697 551.397 729.247C550.972 728.618 550.486 728.032 549.947 727.497V725.097C550.396 724.72 550.769 724.262 551.047 723.747C564.947 692.28 578.847 660.814 592.747 629.347C593.237 627.859 593.621 626.339 593.897 624.797L586.547 625.397V591.297L594.047 590.647V583.647C594.047 557.147 594.047 530.647 594.047 504.097C593.864 502.561 594.153 501.006 594.877 499.639C595.6 498.272 596.724 497.158 598.097 496.447C604.847 492.297 611.347 487.747 618.097 483.347H628.847C637.947 483.847 647.047 484.397 656.147 484.797C677.297 485.747 677.347 485.697 689.597 502.897C691.052 504.933 691.886 507.347 691.997 509.847C692.547 535.997 692.847 562.097 693.197 588.197C693.197 590.297 693.197 592.397 693.197 594.397L699.947 594.947C700.447 599.947 700.897 604.947 701.347 609.547V612.547C701.797 621.747 701.797 621.747 692.797 622.547C692.497 622.547 692.247 622.897 691.447 623.447C696.947 636.247 702.647 648.997 707.947 661.947C716.347 682.497 724.397 703.197 732.947 723.697C734.038 725.842 734.45 728.268 734.129 730.653C733.807 733.037 732.767 735.268 731.147 737.047C728.875 740.01 726.961 743.233 725.447 746.647C700.997 795.447 681.347 846.347 660.997 896.947C656.847 906.947 652.897 917.447 648.847 927.747H648.147V755.197L650.547 754.297" fill="white"/>
<path d="M257.197 222.947C256.348 246.19 259.235 269.418 265.747 291.747C269.947 306.747 274.647 322.147 280.247 336.747C285.561 350.833 291.637 364.62 298.447 378.047C307.75 396.693 319.43 414.054 333.197 429.697C341.297 438.747 349.447 447.797 358.197 456.097C371.047 468.147 384.397 479.697 397.847 491.097C410.047 501.447 422.847 511.097 434.997 521.497C445.747 530.897 455.997 540.897 465.897 551.197C475.797 561.497 485.447 572.047 494.047 583.047C502.647 594.047 511.847 606.897 520.147 619.197C524.15 625.517 527.693 632.117 530.747 638.947C534.832 648.613 538.338 658.514 541.247 668.597C545.397 680.897 544.047 692.897 543.997 704.997C543.315 716.126 539.578 726.853 533.197 735.997C527.571 745.353 519.766 753.209 510.447 758.897C501.583 764.257 492.202 768.712 482.447 772.197C486.247 767.697 490.247 763.347 493.797 758.697C500.297 749.184 504.46 738.272 505.947 726.847C509.397 708.997 504.697 692.147 499.197 675.597C490.997 650.997 476.197 629.997 460.747 609.697C450.178 595.541 438.651 582.126 426.247 569.547C412.947 556.297 397.997 544.547 383.597 532.547C371.047 522.047 357.897 512.147 345.597 501.347C333.297 490.547 320.097 478.097 307.897 465.947C298.347 456.497 289.247 446.547 280.547 436.297C264.267 416.957 251.752 394.741 243.647 370.797C235.432 346.953 232.033 321.715 233.647 296.547C234.405 287.204 236.354 277.996 239.447 269.147C244.447 253.647 250.497 238.497 256.097 223.197L257.197 222.947Z" fill="white"/>
<path d="M189.047 473.247C201.297 486.497 212.347 501.147 226.097 512.597C239.847 524.047 257.647 533.647 273.747 543.797C285.447 551.147 297.347 558.147 309.147 565.347C322.297 573.397 335.447 581.247 348.547 589.547C360.547 597.347 372.297 605.547 383.947 613.897C395.597 622.247 405.997 630.197 416.797 638.897C420.447 641.697 425.447 644.547 423.247 650.447C412.297 643.547 401.347 636.047 389.847 629.547C376.644 621.908 363.041 614.981 349.097 608.797C332.297 601.597 314.697 596.347 297.797 589.347C272.797 578.947 247.797 568.397 223.447 556.597C213.27 550.966 205.185 542.197 200.397 531.597C195.859 523.617 192.762 514.901 191.247 505.847C191.247 505.347 189.797 504.997 189.047 504.597V473.247Z" fill="white"/>
<path d="M211.997 327.447C213.097 332.797 214.347 338.097 215.297 343.497C219.258 364.777 225.702 385.519 234.497 405.297C242.666 424.204 253.492 441.849 266.647 457.697C276.375 468.582 286.868 478.758 298.047 488.147C308.497 497.447 319.747 505.747 330.347 514.847C345.597 527.947 360.847 541.097 375.347 554.847C386.597 565.297 396.997 576.697 407.747 587.647C410.766 590.974 413.954 594.145 417.297 597.147C419.698 598.875 421.48 601.329 422.38 604.147C423.28 606.964 423.251 609.997 422.297 612.797C416.547 608.097 410.997 603.447 405.297 599.047C395.826 591.003 385.929 583.475 375.647 576.497C352.497 562.247 328.547 549.347 305.647 535.147C282.002 521.674 259.7 505.969 239.047 488.247C226.829 478.284 216.499 466.209 208.547 452.597C203.735 442.671 199.884 432.307 197.047 421.647C193.497 409.497 195.897 397.447 194.747 385.447C194.047 378.247 197.447 370.447 199.197 363.247C200.447 357.947 201.797 352.647 203.497 347.497C205.747 340.847 208.497 334.297 210.847 327.497L211.997 327.447Z" fill="white"/>
<path d="M423.647 677.797C417.297 675.347 410.997 672.497 404.497 670.447C390.397 665.997 376.347 661.347 362.047 657.847C346.147 653.98 330.114 650.797 313.947 648.297C301.197 646.297 288.097 646.347 275.347 644.297C260.347 641.897 244.147 640.397 231.197 630.747C220.447 622.797 210.447 614.197 206.797 600.297C205.203 595.565 203.35 590.925 201.247 586.397C200.903 585.008 200.768 583.575 200.847 582.147C211.397 585.847 221.497 589.547 231.697 592.997C243.597 597.047 255.597 600.947 267.547 604.847L289.697 612.097C299.697 615.397 309.397 618.597 319.147 622.097C333.697 627.397 348.347 632.547 362.647 638.547C374.547 643.547 386.147 649.297 397.647 655.197C405.394 659.207 412.891 663.681 420.097 668.597C422.497 670.247 423.597 673.897 425.097 676.597L423.647 677.797Z" fill="white"/>
<path d="M424.847 700.097C418.047 698.547 411.247 696.947 404.447 695.447C401.284 694.526 398.033 693.94 394.747 693.697C374.747 693.697 355.247 693.697 335.497 693.697C329.865 694.084 324.257 694.768 318.697 695.747C303.697 697.447 289.147 699.347 274.347 700.747C261.247 701.897 251.597 694.947 243.197 685.747C240.847 683.247 238.947 680.447 236.747 677.847C234.547 675.247 234.797 672.847 238.847 671.947C240.228 671.822 241.617 671.822 242.997 671.947C265.697 671.947 288.447 671.297 311.097 671.947C325.759 672.636 340.358 674.306 354.797 676.947C370.117 679.665 385.287 683.17 400.247 687.447C408.882 690.627 417.3 694.369 425.447 698.647L424.847 700.097Z" fill="white"/>
<path d="M269.797 725.847C281.497 724.197 292.297 722.397 303.147 721.197C319.097 719.397 335.097 717.347 351.097 716.597C364.097 715.997 377.197 717.047 390.297 717.497C397.947 717.497 405.647 718.097 413.297 718.797C417.175 719.181 420.989 720.055 424.647 721.397C425.897 721.897 426.447 724.397 427.997 727.097C415.997 727.097 405.297 726.397 394.697 727.097C383.034 728.074 371.455 729.878 360.047 732.497C343.447 736.347 327.147 741.447 310.647 745.547C307.168 746.065 303.616 745.809 300.247 744.797C289.816 742.468 280.168 737.472 272.247 730.297C271.297 729.547 270.947 728.147 269.797 725.847Z" fill="white"/>
<path d="M312.047 767.447C333.647 760.647 353.197 753.647 373.147 748.347C389.347 744.097 405.547 738.847 422.747 740.297C424.597 740.297 426.447 740.897 428.297 741.147V742.897C425.639 744.226 422.86 745.297 419.997 746.097C399.997 749.947 382.147 759.097 364.047 767.847C356.425 771.951 348.285 775.012 339.847 776.947C334.794 777.63 329.651 777.127 324.826 775.478C320.001 773.829 315.626 771.079 312.047 767.447Z" fill="white"/>
<path d="M430.447 763.847C421.597 768.547 413.197 772.797 405.047 777.497C395.447 782.947 386.647 789.547 376.847 794.547C372.741 796.413 368.283 797.379 363.772 797.379C359.262 797.379 354.803 796.413 350.697 794.547C349.997 794.247 349.597 793.197 348.097 791.197C367.747 782.947 386.697 774.897 405.647 766.997C411.497 764.597 417.497 762.497 423.497 760.447C428.447 758.397 429.547 759.147 430.447 763.847Z" fill="white"/>
<path d="M433.397 779.547C432.697 781.997 432.797 785.347 431.197 786.797C423.024 794.691 414.229 801.914 404.897 808.397C399.897 811.497 393.097 810.947 386.647 810.847C399.647 796.947 415.547 787.697 431.647 778.547L433.397 779.547Z" fill="white"/>
<path d="M736.247 670.847C737.297 667.697 738.447 664.547 739.397 661.397C740.188 657.552 741.224 653.761 742.497 650.047C752.331 625.787 765.82 603.175 782.497 582.997C793.897 569.997 804.397 556.097 816.497 543.747C828.597 531.397 842.097 520.147 855.397 508.747C870.397 496.097 886.047 484.247 900.847 471.397C912.947 460.897 924.647 449.897 935.847 438.247C944.897 428.697 952.747 417.947 960.847 407.697C973.597 391.847 981.597 373.247 990.397 355.247C996.444 342.739 1001.66 329.844 1006 316.647C1010.2 304.197 1012.35 291.097 1016 278.547C1021.55 258.884 1023.93 238.46 1023.05 218.047H1024.25C1030.25 234.847 1036.6 251.497 1042.15 268.447C1047.56 285.419 1048.79 303.446 1045.75 320.997C1043.9 332.547 1042.55 344.297 1039.6 355.547C1033.21 380.533 1021.57 403.869 1005.45 423.997C992.531 439.991 978.673 455.202 963.947 469.547C948.197 484.997 931.647 499.547 914.797 513.897C898.947 527.347 881.697 538.897 866.147 552.947C855.572 562.701 845.776 573.266 836.847 584.547C825.397 598.447 814.247 612.647 804.097 627.497C796.991 638.589 790.611 650.13 784.997 662.047C777.503 676.94 773.583 693.375 773.547 710.047C773.232 720.174 775.04 730.255 778.854 739.641C782.669 749.027 788.406 757.511 795.697 764.547C796.547 765.347 797.297 766.297 798.097 767.147L797.347 768.547C787.347 763.547 777.047 758.897 767.697 752.847C757.252 746.106 748.876 736.605 743.497 725.397C740.797 719.697 738.497 713.797 736.247 707.997V670.847Z" fill="white"/>
<path d="M1069.5 321.697C1072.3 329.797 1074.8 336.697 1077.05 343.847C1078.15 347.197 1078.8 350.647 1079.7 353.847C1081.5 360.947 1083.85 367.997 1084.95 375.197C1085.9 381.347 1084.95 387.697 1085.55 393.947C1086.31 409.476 1083.16 424.949 1076.4 438.947C1069.06 456.062 1057.31 470.92 1042.35 481.997C1031 490.697 1020.25 500.197 1008.55 508.397C995.447 517.497 981.697 525.797 967.947 533.947C944.397 547.897 919.397 559.547 897.697 576.497C885.847 585.747 874.197 595.147 862.697 604.497L860.347 606.097C859.35 603.595 859.127 600.852 859.706 598.223C860.286 595.593 861.641 593.198 863.597 591.347C873.347 582.047 882.047 571.347 891.847 562.347C907.58 547.513 923.63 533.03 939.997 518.897C958.397 502.997 978.097 488.547 995.747 471.947C1009.19 459.462 1020.87 445.197 1030.45 429.547C1041.05 412.245 1049.66 393.793 1056.1 374.547C1060.7 360.647 1063 345.997 1066.4 331.747C1067.1 328.797 1068.2 325.897 1069.5 321.697Z" fill="white"/>
<path d="M1090.45 471.497C1090.45 480.547 1090.95 489.297 1090.45 497.997C1089.61 502.73 1088.17 507.335 1086.15 511.697C1084.45 516.347 1082.7 520.947 1080.75 525.447C1072.4 544.547 1055.75 553.697 1037.9 561.797C1031.7 564.647 1025.85 568.197 1019.6 570.897C1011.1 574.497 1002.35 577.747 993.647 580.897C983.647 584.447 973.647 587.347 963.647 590.897C950.347 595.897 937.097 601.397 924.097 607.197C915.597 610.997 907.447 615.597 899.097 620.147C886.397 627.247 874.097 634.597 861.047 641.897C860.386 640.292 860.359 638.495 860.972 636.871C861.585 635.247 862.791 633.916 864.347 633.147C877.797 623.647 890.597 613.147 903.997 603.697C915.497 595.497 927.447 587.947 938.997 580.247C949.897 573.197 960.797 566.197 971.797 559.397C987.097 550.03 1002.46 540.814 1017.9 531.747C1034.61 522.846 1050 511.673 1063.65 498.547L1090.45 471.497Z" fill="white"/>
<path d="M1080 577.247C1079.19 581.659 1078.05 586.004 1076.6 590.247C1074.35 596.775 1071.22 602.966 1067.3 608.647C1055.7 623.247 1041.45 633.647 1022.05 636.197C1007.05 638.047 992.397 640.797 977.547 643.247C956.047 646.797 934.347 649.597 913.097 654.347C898.097 657.747 883.097 663.747 868.397 668.597C865.847 669.447 863.397 670.397 860.947 671.297C859.347 664.997 862.297 661.547 867.797 658.747C878.497 653.247 888.497 646.297 899.397 641.447C915.847 634.097 932.897 628.047 949.697 621.447C958.147 618.147 966.547 614.747 975.097 611.847C986.097 608.097 997.247 604.847 1008.3 601.347C1021.2 597.197 1034.15 593.147 1047 588.847C1057.75 585.297 1068.45 581.347 1080 577.247Z" fill="white"/>
<path d="M859.047 693.447C859.997 692.347 860.747 690.597 861.947 690.147C879.28 682.965 897.357 677.733 915.847 674.547C927.797 672.597 939.947 671.597 951.897 669.547C980.747 664.547 1009.8 668.397 1038.7 667.247C1040.1 667.247 1042.15 666.797 1042.75 667.247C1043.35 667.697 1045.1 671.447 1044.5 672.247C1037.55 680.447 1030.95 688.847 1020.4 693.397C1011.05 697.447 1001.6 695.847 992.347 695.497C983.097 695.147 973.547 692.147 964.097 691.147C952.347 689.897 940.547 689.147 928.747 688.697C918.147 688.347 907.547 688.147 896.997 688.697C885.697 689.347 874.447 690.997 863.197 692.297C861.993 692.683 860.873 693.294 859.897 694.097L859.047 693.447Z" fill="white"/>
<path d="M857.647 722.297C855.997 718.247 857.647 716.197 861.047 715.547C867.149 714.249 873.329 713.347 879.547 712.847C893.381 711.673 907.272 711.323 921.147 711.797C938.147 712.947 955.347 711.297 972.197 715.997C982.191 718.029 992.317 719.349 1002.5 719.947C1004.95 720.247 1007.5 720.947 1012.1 721.897C1007.26 726.282 1002.15 730.356 996.797 734.097C992.2 736.933 987.113 738.884 981.797 739.847C976.321 740.691 970.732 740.453 965.347 739.147C952.297 736.047 939.697 731.147 926.597 728.647C907.947 725.097 889.247 720.597 869.947 722.247C865.797 722.597 861.647 722.297 857.647 722.297Z" fill="white"/>
<path d="M966.147 762.747C963.997 769.297 957.647 769.697 952.747 771.247C941.547 774.747 931.847 770.447 921.697 765.347C906.447 757.647 890.347 751.597 874.497 745.347C869.497 743.247 863.747 742.247 858.447 740.347C857.589 739.982 856.824 739.429 856.209 738.727C855.595 738.026 855.146 737.195 854.897 736.297C894.097 736.347 929.947 749.547 966.147 762.747Z" fill="white"/>
<path d="M851.797 759.547C851.797 758.497 851.797 757.297 852.247 756.147C852.485 755.478 852.769 754.826 853.097 754.197C880.295 762.122 906.537 773.021 931.347 786.697C929.597 791.697 924.797 790.897 921.347 791.697C910.775 792.715 900.215 789.637 891.847 783.097C881.597 776.397 870.747 770.497 860.147 764.297C857.447 762.697 854.697 761.347 851.797 759.547Z" fill="white"/>
<path d="M895.447 805.097C889.992 806.711 884.191 806.74 878.72 805.182C873.249 803.624 868.333 800.542 864.547 796.297C859.847 791.747 854.547 787.747 850.347 782.847C848.994 780.178 848.554 777.139 849.097 774.197C865.631 782.769 881.174 793.132 895.447 805.097Z" fill="white"/>
<path d="M423.047 588.747C423.397 580.397 424.297 572.047 423.997 563.747C423.648 561.434 424.163 559.074 425.446 557.118C426.728 555.162 428.687 553.748 430.947 553.147C452.197 544.597 473.247 535.597 494.597 527.247C521.997 516.547 549.597 506.297 577.197 495.847C578.997 495.147 580.897 494.647 584.597 493.447C584.597 513.447 584.597 532.197 584.597 551.097C584.597 552.547 581.897 554.647 580.047 555.347C551.747 566.147 523.447 576.747 495.047 587.397C492.847 588.247 490.547 588.997 488.347 589.897C475.947 594.897 473.347 598.797 473.347 611.947C473.347 639.047 473.347 666.147 473.347 693.247C473.347 738.247 478.347 782.447 496.297 824.247C517.697 873.897 553.547 910.597 599.197 938.197C613.347 946.697 628.447 953.597 642.997 961.447C644.885 962.554 647.034 963.138 649.222 963.138C651.411 963.138 653.559 962.554 655.447 961.447C688.498 946.609 718.119 925.091 742.447 898.247C776.347 860.297 796.647 815.497 808.147 766.397C820.607 710.81 823.079 653.45 815.447 596.997C815.384 595.144 814.721 593.363 813.558 591.92C812.395 590.477 810.794 589.451 808.997 588.997C774.947 576.697 740.997 563.997 706.897 551.747C702.697 550.197 701.097 548.497 701.347 543.697C702.147 529.397 702.197 514.997 702.547 500.647C702.547 499.097 702.547 497.547 702.847 494.497C714.447 497.997 725.647 500.547 736.297 504.497C750.547 510.047 764.147 517.097 778.297 522.897C802.064 532.63 825.93 542.063 849.897 551.197C851.94 551.688 853.743 552.886 854.988 554.579C856.232 556.272 856.838 558.35 856.697 560.447C860.488 610.608 861.105 660.958 858.547 711.197C856.427 751.032 848.96 790.402 836.347 828.247C814.047 893.247 772.147 943.247 715.297 980.897C694.397 994.697 671.647 1005.65 650.297 1018.5C648.118 1019.99 645.508 1020.72 642.87 1020.59C640.232 1020.45 637.712 1019.45 635.697 1017.75C598.534 996.293 563.317 971.632 530.447 944.047C478.699 899.492 444.419 838.036 433.697 770.597C428.135 737.532 424.91 704.115 424.047 670.597C424.047 665.597 423.347 660.597 422.997 655.597L423.047 588.747Z" fill="white"/>
<defs>
<filter id="filter0_d_67_2" x="0" y="0" width="1280" height="1280" filterUnits="userSpaceOnUse" color-interpolation-filters="sRGB">
<feFlood flood-opacity="0" result="BackgroundImageFix"/>
<feColorMatrix in="SourceAlpha" type="matrix" values="0 0 0 0 0 0 0 0 0 0 0 0 0 0 0 0 0 0 127 0" result="hardAlpha"/>
<feOffset dy="20"/>
<feGaussianBlur stdDeviation="20"/>
<feComposite in2="hardAlpha" operator="out"/>
<feColorMatrix type="matrix" values="0 0 0 0 0.0196078 0 0 0 0 0.12549 0 0 0 0 0.227451 0 0 0 0.1 0"/>
<feBlend mode="normal" in2="BackgroundImageFix" result="effect1_dropShadow_67_2"/>
<feBlend mode="normal" in="SourceGraphic" in2="effect1_dropShadow_67_2" result="shape"/>
</filter>
</defs>
</svg>
