<svg xmlns="http://www.w3.org/2000/svg" width="177" height="54" viewBox="0 0 177 54" fill="none"><g id="Frame" clip-path="url(#clip0_553_17443)"><g id="Group"><g id="Group_2"><path id="Vector" d="M60.0391 23.9497C60.0391 23.1815 60.0391 22.4585 59.9939 21.7355C59.9487 21.0125 59.9487 20.2894 59.9036 19.5212C60.2198 19.5664 60.4909 19.5664 60.8071 19.5664C61.1233 19.5664 61.4396 19.6116 61.7106 19.6116C62.0268 19.6116 62.2979 19.6116 62.6141 19.5664C62.9304 19.5212 63.2466 19.5212 63.5177 19.5212C64.0146 19.5212 64.4663 19.5664 64.9181 19.6116C65.3699 19.702 65.7313 19.8376 66.0475 20.0183C66.3637 20.1991 66.6348 20.4702 66.8607 20.7865C67.0414 21.1028 67.1317 21.5095 67.1317 22.0066C67.1317 22.8652 66.8607 23.4978 66.3186 23.9949C65.7765 24.492 65.0988 24.8083 64.2405 24.989V25.0342C65.2795 25.0794 66.0475 25.3053 66.6348 25.7572C67.2221 26.2091 67.5383 26.9321 67.5383 27.9263C67.5383 28.5589 67.4028 29.1012 67.1317 29.553C66.8607 30.0049 66.5445 30.3212 66.0927 30.5924C65.6861 30.8635 65.1892 31.0443 64.6922 31.1798C64.1953 31.2702 63.6532 31.3606 63.1562 31.3606C62.8852 31.3606 62.6141 31.3606 62.3431 31.3606C62.072 31.3606 61.801 31.3606 61.5299 31.3606C61.2588 31.3606 60.9878 31.3606 60.7167 31.3606C60.4457 31.3606 60.1746 31.3606 59.9036 31.4058C59.9487 30.6827 59.9487 29.9597 59.9939 29.1915C60.0391 28.4685 60.0391 27.7003 60.0391 26.9773V23.9497ZM62.3883 24.7631C62.7948 24.7631 63.2014 24.7179 63.5628 24.6275C63.9694 24.5371 64.3308 24.4016 64.6019 24.2208C64.9181 24.0401 65.144 23.7689 65.3699 23.4526C65.5506 23.1363 65.6409 22.7296 65.6409 22.2777C65.6409 21.8258 65.5506 21.4191 65.3699 21.148C65.1892 20.8769 64.9633 20.6509 64.7374 20.5154C64.4664 20.3798 64.1953 20.2443 63.8339 20.1991C63.5177 20.1539 63.1562 20.1087 62.84 20.1087C62.5238 20.1087 62.2979 20.1087 62.072 20.1539C61.8461 20.1539 61.6654 20.1991 61.5299 20.1991C61.4847 20.7413 61.4847 21.2836 61.4395 21.8258C61.3944 22.3681 61.3944 22.9104 61.3944 23.4526V24.7631H62.3883ZM61.4847 27.1581C61.4847 27.7455 61.4847 28.333 61.5299 28.8752C61.5751 29.4627 61.5751 30.0049 61.6203 30.5924C61.8461 30.6376 62.1172 30.6376 62.3883 30.6376C62.7045 30.6376 62.9755 30.6827 63.2918 30.6827C63.6532 30.6827 64.0146 30.6376 64.3308 30.502C64.6471 30.3664 64.9633 30.1857 65.2343 29.9597C65.5054 29.7338 65.6861 29.4175 65.8216 29.056C65.9572 28.6945 66.0475 28.2878 66.0475 27.8359C66.0475 27.3388 65.9572 26.9321 65.7765 26.6158C65.5958 26.2995 65.3247 26.0735 65.0085 25.8928C64.6922 25.712 64.2856 25.5765 63.8339 25.5313C63.3821 25.4409 62.84 25.4409 62.2979 25.4409H61.5299V27.1581H61.4847Z" fill="#27367A"></path><path id="Vector_2" d="M70.3393 23.9949C70.8362 23.5882 71.3331 23.3623 71.7849 23.1815C72.2367 23.0459 72.6884 22.9556 73.1402 22.9556C73.5468 22.9556 73.9534 23.0008 74.2696 23.1363C74.631 23.2719 74.9021 23.4074 75.1279 23.6334C75.3538 23.8593 75.5797 24.1305 75.7152 24.4468C75.8508 24.7631 75.9411 25.1246 75.9411 25.4861C75.9411 26.1187 75.9411 26.7966 75.8959 27.4292C75.8508 28.0618 75.8508 28.7397 75.8508 29.4627C75.8508 29.5982 75.8508 29.7338 75.8508 29.9146C75.8508 30.0501 75.8959 30.1857 75.9411 30.3213C75.9863 30.4568 76.0315 30.5472 76.1218 30.6376C76.2122 30.728 76.3477 30.7731 76.5284 30.7731C76.5736 30.7731 76.6639 30.7731 76.7091 30.7731C76.7543 30.7731 76.8446 30.728 76.8898 30.728V31.0895C76.7543 31.1346 76.6187 31.1798 76.438 31.225C76.2573 31.2702 76.0315 31.2702 75.8056 31.2702C75.4442 31.2702 75.1731 31.1798 74.9472 30.9991C74.7665 30.8183 74.631 30.5472 74.5858 30.2761C74.1792 30.6828 73.7727 30.9991 73.3661 31.1798C72.9595 31.3606 72.4626 31.451 71.8753 31.451C71.6042 31.451 71.288 31.4058 71.0169 31.3154C70.7459 31.225 70.52 31.0895 70.2941 30.9087C70.0682 30.728 69.9327 30.502 69.7972 30.2309C69.6616 29.9598 69.6165 29.6886 69.6165 29.3271C69.6165 28.6493 69.8423 28.107 70.2489 27.7455C70.7007 27.384 71.288 27.1129 72.0108 26.9773C72.6432 26.8869 73.095 26.7966 73.4564 26.7062C73.8178 26.6158 74.0437 26.5706 74.2244 26.4803C74.4051 26.3899 74.4955 26.2995 74.5406 26.2091C74.5858 26.1187 74.5858 25.938 74.5858 25.8024C74.5858 25.5313 74.5406 25.2602 74.4955 24.989C74.4051 24.7179 74.3148 24.492 74.1792 24.3112C74.0437 24.1305 73.8178 23.9497 73.5919 23.8593C73.3661 23.7238 73.0498 23.6786 72.7336 23.6786C72.2818 23.6786 71.8301 23.769 71.4687 23.9949C71.0621 24.2208 70.791 24.492 70.5651 24.8535H70.3844V23.9949H70.3393ZM74.5858 27.0225C74.4051 27.1129 74.1792 27.1581 73.9082 27.2033C73.6371 27.2485 73.4112 27.2936 73.1402 27.3388C72.8691 27.384 72.5981 27.4744 72.3722 27.5196C72.1011 27.61 71.8753 27.7003 71.6946 27.8359C71.5138 27.9715 71.3331 28.1522 71.1976 28.333C71.0621 28.5589 71.0169 28.7849 71.0169 29.1464C71.0169 29.6886 71.1524 30.0953 71.4687 30.3664C71.7849 30.6376 72.1011 30.7731 72.5077 30.7731C72.9595 30.7731 73.3209 30.6376 73.6823 30.4116C74.0437 30.1857 74.3148 29.8694 74.4955 29.5531L74.5858 27.0225Z" fill="#27367A"></path><path id="Vector_3" d="M82.356 24.3564C82.1753 24.3112 82.0398 24.266 81.8591 24.266C81.588 24.266 81.317 24.3112 81.1363 24.4468C80.9104 24.5823 80.7297 24.7631 80.5942 24.9439C80.4586 25.1698 80.3231 25.3957 80.2328 25.7121C80.1424 25.9832 80.0972 26.2995 80.0972 26.661V28.5589C80.0972 29.3271 80.0972 29.9146 80.0972 30.3213C80.0972 30.728 80.1424 31.0443 80.1424 31.3154C79.9165 31.2702 79.6906 31.2702 79.4648 31.2702C79.1937 31.2702 78.9678 31.2702 78.7419 31.3154C78.7871 30.9087 78.7871 30.4116 78.7871 29.7338C78.7871 29.056 78.7871 28.2426 78.7871 27.2485V26.7062C78.7871 26.2543 78.7871 25.7572 78.7871 25.1698C78.7871 24.5823 78.7419 23.9045 78.7419 23.1363C78.8775 23.1815 78.9678 23.1815 79.1034 23.1815C79.2389 23.1815 79.3292 23.2267 79.4648 23.2267C79.5551 23.2267 79.6906 23.2267 79.781 23.1815C79.8713 23.1363 80.0069 23.1363 80.1424 23.1363C80.0972 23.543 80.052 23.8593 80.052 24.1305C80.052 24.3564 80.052 24.5823 80.052 24.8083H80.0972C80.7749 23.5882 81.5429 22.9556 82.356 22.9556C82.4464 22.9556 82.5367 22.9556 82.6271 22.9556C82.7174 22.9556 82.8078 23.0008 82.8981 23.0459C82.853 23.1815 82.8078 23.4075 82.8078 23.6786C82.8078 23.9497 82.8078 24.2208 82.8078 24.4468L82.6723 24.5372C82.6723 24.492 82.5367 24.4468 82.356 24.3564Z" fill="#27367A"></path><path id="Vector_4" d="M84.4794 23.9949C84.9763 23.5882 85.4733 23.3623 85.925 23.1815C86.3768 23.0459 86.8286 22.9556 87.2803 22.9556C87.6869 22.9556 88.0935 23.0008 88.4097 23.1363C88.7711 23.2719 89.0422 23.4074 89.2681 23.6334C89.494 23.8593 89.7198 24.1305 89.8554 24.4468C89.9909 24.7631 90.0812 25.1246 90.0812 25.4861C90.0812 26.1187 90.0813 26.7966 90.0361 27.4292C89.9909 28.0618 89.9909 28.7397 89.9909 29.4627C89.9909 29.5982 89.9909 29.7338 89.9909 29.9146C89.9909 30.0501 90.0361 30.1857 90.0812 30.3213C90.1264 30.4568 90.1716 30.5472 90.262 30.6376C90.3523 30.728 90.4878 30.7731 90.6685 30.7731C90.7137 30.7731 90.8041 30.7731 90.8492 30.7731C90.8944 30.7731 90.9848 30.728 91.0299 30.728V31.0895C90.8944 31.1346 90.7589 31.1798 90.5782 31.225C90.3975 31.2702 90.1716 31.2702 89.9457 31.2702C89.5843 31.2702 89.3133 31.1798 89.0874 30.9991C88.9067 30.8183 88.7711 30.5472 88.726 30.2761C88.3194 30.6828 87.9128 30.9991 87.5062 31.1798C87.0996 31.3606 86.6027 31.451 86.0154 31.451C85.7443 31.451 85.4281 31.4058 85.1571 31.3154C84.886 31.225 84.6601 31.0895 84.4342 30.9087C84.2084 30.728 84.0728 30.502 83.9373 30.2309C83.8018 29.9598 83.7566 29.6886 83.7566 29.3271C83.7566 28.6493 83.9825 28.107 84.3891 27.7455C84.8408 27.384 85.4281 27.1129 86.1509 26.9773C86.7834 26.8869 87.2352 26.7966 87.5966 26.7062C87.958 26.6158 88.1839 26.5706 88.3646 26.4803C88.5453 26.3899 88.6356 26.2995 88.6808 26.2091C88.726 26.1187 88.726 25.938 88.726 25.8024C88.726 25.5313 88.6808 25.2602 88.6356 24.989C88.5453 24.7179 88.4549 24.492 88.3194 24.3112C88.1839 24.1305 87.958 23.9497 87.7321 23.8593C87.5062 23.7238 87.19 23.6786 86.8737 23.6786C86.422 23.6786 85.9702 23.769 85.6088 23.9949C85.2022 24.2208 84.9312 24.492 84.7053 24.8535H84.4794V23.9949ZM88.726 27.0225C88.5453 27.1129 88.3194 27.1581 88.0483 27.2033C87.7773 27.2485 87.5514 27.2936 87.2803 27.3388C87.0093 27.384 86.7382 27.4744 86.5123 27.5196C86.2413 27.61 86.0154 27.7003 85.8347 27.8359C85.654 27.9715 85.4733 28.1522 85.3378 28.333C85.2022 28.5589 85.1571 28.7849 85.1571 29.1464C85.1571 29.6886 85.2926 30.0953 85.6088 30.3664C85.925 30.6376 86.2413 30.7731 86.6479 30.7731C87.0996 30.7731 87.461 30.6376 87.8224 30.4116C88.1839 30.1857 88.4549 29.8694 88.6356 29.5531L88.726 27.0225Z" fill="#27367A"></path><path id="Vector_5" d="M93.0176 22.0519C93.0176 21.6 93.0176 21.1481 92.9724 20.6962C92.9724 20.2443 92.9273 19.8376 92.9273 19.4309C92.9273 19.0242 92.8821 18.6627 92.8821 18.3916C93.1983 18.4368 93.4694 18.482 93.6501 18.482C93.8308 18.482 94.1018 18.4368 94.4181 18.3916C94.3729 18.6627 94.3729 19.0242 94.3729 19.4309C94.3729 19.8376 94.3277 20.2443 94.3277 20.6962C94.3277 21.1481 94.3277 21.6 94.2825 22.0519C94.2825 22.5037 94.2825 22.9556 94.2825 23.3171V26.4351C94.2825 26.6611 94.3729 26.7514 94.5084 26.7514C94.5988 26.7514 94.6891 26.7062 94.8246 26.6159C94.915 26.5255 95.0505 26.4351 95.1861 26.3447C95.2764 26.2544 95.4571 26.1188 95.7282 25.8929C95.9541 25.6669 96.2703 25.3958 96.5413 25.0795C96.8576 24.7631 97.1738 24.4468 97.49 24.0853C97.8063 23.7238 98.1225 23.4075 98.3484 23.0912C98.5743 23.1364 98.8002 23.1816 98.9809 23.1816C99.1164 23.1816 99.2519 23.1816 99.3423 23.1364C99.4778 23.1364 99.6133 23.0912 99.8392 23.0912C99.1164 23.6786 98.4387 24.2661 97.7611 24.8083C97.0835 25.3958 96.4962 25.938 95.8637 26.5255C96.4962 27.3389 97.1738 28.1071 97.8966 28.9205C98.5743 29.7339 99.2971 30.5021 100.02 31.2703C99.8392 31.2251 99.6585 31.2251 99.4778 31.2251C99.3423 31.2251 99.1616 31.2251 99.026 31.2251C98.8905 31.2251 98.755 31.2251 98.6194 31.2251C98.4839 31.2251 98.3032 31.2251 98.1677 31.2703C97.8966 30.9991 97.6256 30.6376 97.3093 30.2761C96.9931 29.9146 96.6769 29.5079 96.3606 29.1464C96.0444 28.7849 95.7282 28.4234 95.4571 28.0619C95.1861 27.7456 94.915 27.4744 94.7343 27.2485C94.6891 27.2033 94.6439 27.1581 94.5988 27.1129C94.5536 27.0678 94.5084 27.0678 94.4632 27.0678C94.3277 27.0678 94.2825 27.1581 94.2825 27.2937V28.333C94.2825 28.8301 94.2825 29.3724 94.3277 29.8242C94.3277 30.3213 94.3729 30.8184 94.4181 31.3155C94.147 31.2703 93.876 31.2703 93.6501 31.2703C93.379 31.2703 93.1531 31.2703 92.8821 31.3155C92.9273 31.0443 92.9273 30.728 92.9273 30.3213C92.9273 29.9146 92.9724 29.5079 92.9724 29.056C92.9724 28.6042 92.9724 28.1523 93.0176 27.7004C93.0176 27.2485 93.0176 26.7966 93.0176 26.4351V23.3171C93.0176 22.9104 93.0176 22.5037 93.0176 22.0519Z" fill="#27367A"></path><path id="Vector_6" d="M101.646 23.9949C102.143 23.5882 102.64 23.3623 103.092 23.1815C103.544 23.0459 103.995 22.9556 104.447 22.9556C104.854 22.9556 105.26 23.0008 105.577 23.1363C105.938 23.2719 106.209 23.4074 106.435 23.6334C106.661 23.8593 106.887 24.1305 107.022 24.4468C107.158 24.7631 107.248 25.1246 107.248 25.4861C107.248 26.1187 107.248 26.7966 107.203 27.4292C107.158 28.0618 107.158 28.7397 107.158 29.4627C107.158 29.5982 107.158 29.7338 107.158 29.9146C107.158 30.0501 107.203 30.1857 107.248 30.3213C107.293 30.4568 107.338 30.5472 107.429 30.6376C107.519 30.728 107.655 30.7731 107.835 30.7731C107.881 30.7731 107.971 30.7731 108.016 30.7731C108.061 30.7731 108.152 30.728 108.197 30.728V31.0895C108.061 31.1346 107.926 31.1798 107.745 31.225C107.564 31.2702 107.338 31.2702 107.113 31.2702C106.751 31.2702 106.48 31.1798 106.254 30.9991C106.074 30.8183 105.938 30.5472 105.893 30.2761C105.486 30.6828 105.08 30.9991 104.673 31.1798C104.266 31.3606 103.77 31.451 103.182 31.451C102.911 31.451 102.595 31.4058 102.324 31.3154C102.053 31.225 101.827 31.0895 101.601 30.9087C101.375 30.728 101.24 30.502 101.104 30.2309C100.969 29.9598 100.923 29.6886 100.923 29.3271C100.923 28.6493 101.149 28.107 101.556 27.7455C102.008 27.384 102.595 27.1129 103.318 26.9773C103.95 26.8869 104.402 26.7966 104.763 26.7062C105.125 26.6158 105.351 26.5706 105.531 26.4803C105.712 26.3899 105.802 26.2995 105.848 26.2091C105.893 26.1187 105.893 25.938 105.893 25.8024C105.893 25.5313 105.848 25.2602 105.802 24.989C105.712 24.7179 105.622 24.492 105.486 24.3112C105.351 24.1305 105.125 23.9497 104.899 23.8593C104.673 23.7238 104.357 23.6786 104.041 23.6786C103.589 23.6786 103.137 23.769 102.776 23.9949C102.369 24.2208 102.098 24.492 101.872 24.8535H101.646V23.9949ZM105.893 27.0225C105.712 27.1129 105.486 27.1581 105.215 27.2033C104.944 27.2485 104.718 27.2936 104.447 27.3388C104.176 27.384 103.905 27.4744 103.679 27.5196C103.408 27.61 103.182 27.7003 103.002 27.8359C102.821 27.9715 102.64 28.1522 102.505 28.333C102.369 28.5589 102.324 28.7849 102.324 29.1464C102.324 29.6886 102.459 30.0953 102.776 30.3664C103.092 30.6376 103.408 30.7731 103.815 30.7731C104.266 30.7731 104.628 30.6376 104.989 30.4116C105.351 30.1857 105.622 29.8694 105.802 29.5531L105.893 27.0225Z" fill="#27367A"></path><path id="Vector_7" d="M110.185 22.0519C110.185 21.6 110.185 21.1481 110.139 20.6962C110.139 20.2443 110.094 19.8376 110.094 19.4309C110.094 19.0242 110.049 18.6627 110.049 18.3916C110.365 18.4368 110.636 18.482 110.817 18.482C110.998 18.482 111.269 18.4368 111.585 18.3916C111.54 18.6627 111.54 19.0242 111.54 19.4309C111.54 19.8376 111.495 20.2443 111.495 20.6962C111.495 21.1481 111.495 21.6 111.45 22.0067C111.45 22.4585 111.45 22.8652 111.45 23.2267V24.5372H111.495C111.811 24.0401 112.218 23.6786 112.624 23.4075C113.076 23.1364 113.618 23.0008 114.205 23.0008C114.522 23.0008 114.838 23.046 115.154 23.1364C115.47 23.2267 115.786 23.4075 116.057 23.5883C116.329 23.8142 116.554 24.1305 116.69 24.492C116.871 24.8987 116.961 25.3506 116.961 25.9832C116.961 26.4803 116.961 26.9774 116.916 27.5196C116.871 28.0619 116.871 28.6042 116.871 29.1916V30.2761C116.871 30.4569 116.871 30.6376 116.871 30.8184C116.871 30.9991 116.871 31.1799 116.916 31.3155C116.69 31.2703 116.464 31.2703 116.193 31.2703C115.967 31.2703 115.696 31.2703 115.47 31.3155C115.515 30.728 115.515 30.0954 115.561 29.4627C115.606 28.8301 115.606 28.1975 115.606 27.5196V26.4803C115.606 25.6217 115.425 24.9891 115.109 24.5372C114.793 24.0853 114.296 23.8594 113.754 23.8594C112.94 23.8594 112.353 24.0853 111.992 24.5824C111.63 25.0795 111.45 25.7573 111.45 26.6611C111.45 26.9774 111.45 27.3389 111.45 27.7908C111.45 28.1975 111.45 28.6493 111.495 29.056C111.495 29.5079 111.54 29.9146 111.54 30.3213C111.54 30.728 111.585 31.0443 111.585 31.3155C111.314 31.2703 111.043 31.2703 110.817 31.2703C110.546 31.2703 110.32 31.2703 110.049 31.3155C110.094 31.0443 110.094 30.728 110.094 30.3213C110.094 29.9146 110.139 29.5079 110.139 29.056C110.139 28.6042 110.139 28.1523 110.185 27.7004C110.185 27.2485 110.185 26.7966 110.185 26.4351V23.3171C110.23 22.9104 110.23 22.5037 110.185 22.0519Z" fill="#27367A"></path></g><g id="Group_3"><path id="Vector_8" d="M134.851 30.8184C134.625 30.9087 134.354 30.9991 134.038 31.0895C133.721 31.1799 133.405 31.2702 132.998 31.3154C132.637 31.3606 132.23 31.4058 131.824 31.4058C130.92 31.4058 130.107 31.2702 129.384 31.0443C128.616 30.7732 127.984 30.4117 127.442 29.8694C126.9 29.3723 126.448 28.7397 126.177 27.9715C125.861 27.2033 125.725 26.3899 125.725 25.4409C125.725 24.492 125.861 23.6334 126.177 22.9104C126.493 22.1422 126.9 21.5096 127.487 21.0125C128.029 20.5154 128.707 20.1087 129.475 19.8376C130.243 19.5665 131.101 19.4309 132.05 19.4309C132.773 19.4309 133.45 19.5213 134.083 19.6568C134.715 19.7924 135.257 19.9732 135.709 20.1991C135.619 20.3347 135.528 20.5606 135.483 20.8317C135.438 21.1029 135.393 21.3288 135.348 21.5096L135.257 21.5548C135.167 21.4192 134.986 21.2836 134.805 21.1029C134.625 20.9221 134.354 20.7866 134.083 20.6058C133.812 20.4702 133.495 20.3347 133.179 20.1991C132.863 20.1087 132.456 20.0184 132.05 20.0184C131.372 20.0184 130.785 20.1087 130.198 20.3347C129.61 20.5606 129.158 20.8769 128.707 21.3288C128.3 21.7807 127.939 22.323 127.713 23.0008C127.487 23.6786 127.351 24.492 127.351 25.3958C127.351 26.3447 127.487 27.1129 127.713 27.7907C127.939 28.4686 128.255 29.0108 128.707 29.4627C129.113 29.9146 129.61 30.2309 130.198 30.4569C130.785 30.6828 131.372 30.7732 132.05 30.7732C132.456 30.7732 132.818 30.728 133.179 30.6376C133.541 30.5472 133.857 30.4117 134.128 30.2761C134.399 30.1405 134.67 30.005 134.896 29.8242C135.122 29.6435 135.302 29.5079 135.483 29.3723L135.528 29.4175L135.393 30.4117C135.257 30.6376 135.077 30.728 134.851 30.8184Z" fill="#27367A"></path><path id="Vector_9" d="M137.606 22.1422C137.606 21.6903 137.606 21.2384 137.561 20.8317C137.561 20.3798 137.516 19.9731 137.516 19.5664C137.516 19.1597 137.471 18.8434 137.471 18.5271C137.787 18.5723 138.058 18.6175 138.239 18.6175C138.42 18.6175 138.691 18.5723 139.007 18.5271C139.007 18.7982 138.962 19.1597 138.962 19.5212C138.962 19.9279 138.917 20.3346 138.917 20.7413C138.917 21.1932 138.917 21.5999 138.871 22.0518C138.871 22.5037 138.871 22.9104 138.871 23.2719V24.5371H138.917C139.233 24.0401 139.594 23.6786 140.046 23.4074C140.498 23.1363 140.995 23.0007 141.627 23.0007C141.943 23.0007 142.26 23.0459 142.576 23.1363C142.892 23.2267 143.163 23.3622 143.434 23.5882C143.705 23.8141 143.886 24.0853 144.067 24.492C144.247 24.8535 144.293 25.3505 144.293 25.938C144.293 26.4351 144.293 26.9321 144.247 27.4292C144.247 27.9263 144.202 28.4685 144.202 29.056V30.1405C144.202 30.3212 144.202 30.502 144.202 30.6827C144.202 30.8635 144.202 31.0443 144.247 31.1798C144.021 31.1346 143.796 31.1346 143.525 31.1346C143.299 31.1346 143.073 31.1346 142.847 31.1798C142.847 30.5924 142.892 30.0049 142.937 29.3723C142.982 28.7397 142.982 28.107 142.982 27.4744V26.435C142.982 25.5765 142.802 24.9438 142.485 24.5371C142.169 24.0853 141.718 23.9045 141.13 23.9045C140.362 23.9045 139.775 24.1304 139.414 24.6275C139.052 25.1246 138.871 25.8024 138.871 26.661C138.871 26.9773 138.871 27.3388 138.871 27.7455C138.871 28.1522 138.871 28.5589 138.917 29.0108C138.917 29.4175 138.962 29.8242 138.962 30.2309C138.962 30.6376 139.007 30.9539 139.007 31.1798C138.736 31.1346 138.51 31.1346 138.239 31.1346C138.013 31.1346 137.742 31.1346 137.471 31.1798C137.471 30.9087 137.516 30.5924 137.516 30.1857C137.516 29.779 137.561 29.3723 137.561 28.9204C137.561 28.4685 137.561 28.0166 137.606 27.6099C137.606 27.1581 137.606 26.7514 137.606 26.3447V23.3171C137.652 23.0007 137.606 22.594 137.606 22.1422Z" fill="#27367A"></path><path id="Vector_10" d="M147.048 24.04C147.545 23.6785 147.997 23.4074 148.449 23.2718C148.855 23.1363 149.307 23.0911 149.759 23.0911C150.165 23.0911 150.527 23.1363 150.888 23.2718C151.204 23.4074 151.521 23.5429 151.747 23.7689C151.972 23.9948 152.153 24.266 152.289 24.5823C152.424 24.8986 152.469 25.2149 152.469 25.6216C152.469 26.2542 152.469 26.8869 152.424 27.5195C152.379 28.1522 152.379 28.83 152.379 29.553C152.379 29.6886 152.379 29.8241 152.379 30.0049C152.379 30.1404 152.424 30.276 152.469 30.4116C152.515 30.5471 152.56 30.6375 152.65 30.7279C152.74 30.8183 152.876 30.8635 153.012 30.8635C153.057 30.8635 153.147 30.8635 153.192 30.8635C153.237 30.8635 153.328 30.8183 153.373 30.8183V31.1798C153.237 31.225 153.102 31.2701 152.921 31.3153C152.74 31.3605 152.515 31.3605 152.289 31.3605C151.927 31.3605 151.656 31.2701 151.476 31.0894C151.295 30.9086 151.159 30.6827 151.159 30.3664C150.753 30.7731 150.346 31.0894 149.985 31.2701C149.578 31.4509 149.126 31.5413 148.539 31.5413C148.268 31.5413 147.997 31.4961 147.726 31.4057C147.455 31.3153 147.229 31.1798 147.003 30.999C146.777 30.8183 146.642 30.5923 146.506 30.3664C146.371 30.0952 146.325 29.8241 146.325 29.5078C146.325 28.83 146.551 28.3329 146.958 27.9262C147.364 27.5647 147.952 27.2936 148.72 27.2032C149.307 27.1128 149.804 27.0224 150.12 26.9321C150.436 26.8417 150.708 26.7965 150.888 26.7061C151.069 26.6158 151.159 26.5254 151.204 26.435C151.25 26.3446 151.25 26.2091 151.25 26.0283C151.25 25.7572 151.204 25.486 151.159 25.2149C151.114 24.9438 150.979 24.7178 150.843 24.5371C150.708 24.3563 150.527 24.1756 150.256 24.0852C150.03 23.9496 149.714 23.9045 149.397 23.9045C148.946 23.9045 148.539 23.9948 148.132 24.2208C147.726 24.4015 147.455 24.7178 147.274 25.0793H147.093V24.04H147.048ZM151.204 27.0224C151.024 27.0676 150.798 27.158 150.527 27.2032C150.256 27.2484 150.03 27.2936 149.759 27.3388C149.488 27.384 149.262 27.4743 148.991 27.5195C148.72 27.6099 148.494 27.7003 148.313 27.8358C148.132 27.9714 147.952 28.1522 147.861 28.3329C147.726 28.5137 147.681 28.7848 147.681 29.1011C147.681 29.6434 147.816 30.0049 148.132 30.276C148.449 30.5471 148.765 30.6827 149.126 30.6827C149.533 30.6827 149.94 30.5471 150.301 30.3212C150.662 30.0952 150.933 29.8241 151.114 29.5078L151.204 27.0224Z" fill="#27367A"></path><path id="Vector_11" d="M158.794 24.4016C158.613 24.3564 158.478 24.3112 158.297 24.3112C158.026 24.3112 157.8 24.3564 157.574 24.492C157.348 24.6275 157.168 24.7631 157.032 24.989C156.897 25.215 156.761 25.4409 156.716 25.7121C156.626 25.9832 156.58 26.2995 156.58 26.6158V28.4685C156.58 29.2367 156.58 29.779 156.58 30.1857C156.58 30.5924 156.626 30.9087 156.626 31.1346C156.4 31.0895 156.174 31.0895 155.948 31.0895C155.722 31.0895 155.451 31.0895 155.225 31.1346C155.27 30.7731 155.27 30.2309 155.27 29.5982C155.27 28.9204 155.27 28.1522 155.27 27.2033V26.661C155.27 26.2091 155.27 25.7121 155.27 25.1246C155.27 24.5372 155.225 23.9045 155.225 23.1363C155.361 23.1363 155.451 23.1815 155.587 23.1815C155.677 23.1815 155.812 23.2267 155.948 23.2267C156.038 23.2267 156.174 23.2267 156.264 23.1815C156.354 23.1815 156.49 23.1363 156.626 23.1363C156.58 23.543 156.535 23.8593 156.535 24.0853C156.535 24.3112 156.535 24.5372 156.535 24.7631H156.58C157.258 23.543 157.981 22.9556 158.794 22.9556C158.884 22.9556 158.975 22.9556 159.065 22.9556C159.155 22.9556 159.246 23.0008 159.336 23.0459C159.291 23.1815 159.246 23.4075 159.246 23.6786C159.246 23.9497 159.246 24.2208 159.246 24.4468L159.11 24.5372C159.065 24.5372 158.975 24.492 158.794 24.4016Z" fill="#27367A"></path><path id="Vector_12" d="M161.098 20.2895C161.098 20.0635 161.188 19.8376 161.369 19.702C161.55 19.5213 161.73 19.4309 161.956 19.4309C162.182 19.4309 162.408 19.5213 162.544 19.702C162.724 19.8828 162.815 20.0635 162.815 20.2895C162.815 20.5154 162.724 20.7414 162.544 20.8769C162.363 21.0577 162.182 21.1481 161.956 21.1481C161.73 21.1481 161.505 21.0577 161.369 20.8769C161.188 20.7414 161.098 20.5154 161.098 20.2895ZM161.324 26.3899C161.324 25.8928 161.324 25.3506 161.279 24.8083C161.279 24.2661 161.234 23.7238 161.188 23.2719C161.505 23.3171 161.776 23.3623 161.956 23.3623C162.137 23.3623 162.408 23.3171 162.724 23.2719C162.679 23.769 162.634 24.2661 162.634 24.8083C162.634 25.3506 162.589 25.8928 162.589 26.3899V28.1522C162.589 28.6493 162.589 29.1916 162.634 29.7338C162.634 30.2761 162.679 30.7732 162.724 31.225C162.453 31.1799 162.227 31.1799 161.956 31.1799C161.685 31.1799 161.459 31.1799 161.188 31.225C161.234 30.7732 161.279 30.2761 161.279 29.7338C161.279 29.1916 161.324 28.6493 161.324 28.1522V26.3899Z" fill="#27367A"></path><path id="Vector_13" d="M167.106 20.9673C167.061 21.374 167.061 21.8259 167.016 22.2326C167.016 22.6393 166.971 23.046 166.971 23.4527C167.106 23.4527 167.332 23.4527 167.649 23.4527C167.965 23.4527 168.371 23.4527 168.733 23.4075C168.733 23.4527 168.733 23.4979 168.733 23.5882V23.769V23.9497C168.733 24.0401 168.733 24.0853 168.733 24.1305C168.597 24.1305 168.417 24.1305 168.281 24.0853C168.145 24.0401 167.965 24.0853 167.784 24.0853H166.971C166.971 24.1305 166.926 24.3112 166.926 24.6276C166.926 24.9439 166.881 25.3054 166.881 25.7573C166.881 26.2091 166.881 26.661 166.835 27.1129C166.835 27.5648 166.835 28.0167 166.835 28.3782C166.835 28.6945 166.835 29.0108 166.881 29.282C166.881 29.5983 166.971 29.8694 167.061 30.0953C167.152 30.3213 167.287 30.5472 167.468 30.6828C167.649 30.8184 167.92 30.9087 168.236 30.9087C168.326 30.9087 168.462 30.9087 168.597 30.8635C168.733 30.8184 168.868 30.8184 169.004 30.7732V31.1799C168.823 31.225 168.597 31.2702 168.371 31.3154C168.145 31.3606 167.92 31.4058 167.694 31.4058C166.971 31.4058 166.474 31.225 166.113 30.8635C165.796 30.502 165.616 30.005 165.616 29.3271C165.616 29.0108 165.616 28.6945 165.616 28.333C165.616 27.9715 165.661 27.61 165.661 27.1581C165.661 26.7514 165.706 26.2543 165.706 25.7573C165.706 25.2602 165.706 24.6727 165.706 24.0401H165.164C165.073 24.0401 164.983 24.0401 164.893 24.0401C164.802 24.0401 164.667 24.0401 164.577 24.0853C164.577 24.0401 164.577 23.9497 164.622 23.9045C164.622 23.8594 164.622 23.769 164.622 23.7238C164.622 23.6786 164.622 23.6334 164.622 23.543C164.622 23.4979 164.622 23.4527 164.577 23.3623C165.073 23.4075 165.435 23.4075 165.706 23.4075C165.706 23.1815 165.706 22.9104 165.661 22.5489C165.661 22.2326 165.661 21.8711 165.616 21.5096L167.016 20.9221H167.106V20.9673Z" fill="#27367A"></path><path id="Vector_14" d="M172.708 31.2249C172.573 30.9086 172.437 30.5471 172.211 30.05C172.031 29.5529 171.805 29.0559 171.579 28.5136C171.353 27.9714 171.127 27.4291 170.901 26.8868C170.675 26.3446 170.449 25.8023 170.224 25.3052C169.998 24.8082 169.817 24.4015 169.681 23.9948C169.546 23.6333 169.41 23.3621 169.32 23.1814C169.456 23.1814 169.591 23.2266 169.727 23.2266C169.862 23.2266 169.953 23.2718 170.088 23.2718C170.224 23.2718 170.314 23.2718 170.449 23.2266C170.585 23.2266 170.721 23.1814 170.856 23.1814C171.217 24.2659 171.579 25.3052 172.031 26.3898C172.437 27.4291 172.889 28.5136 173.386 29.6433C173.838 28.6492 174.289 27.6098 174.741 26.4801C175.193 25.3504 175.554 24.2659 175.916 23.1814C176.142 23.2266 176.322 23.2718 176.458 23.2718C176.593 23.2718 176.774 23.2266 177 23.1814C176.91 23.317 176.774 23.5881 176.639 23.9948C176.458 24.3563 176.277 24.8082 176.006 25.3504C175.78 25.8927 175.509 26.435 175.193 27.0676C174.922 27.7002 174.606 28.3329 174.335 29.0107C174.018 29.6885 173.747 30.3211 173.431 30.999C173.16 31.6768 172.889 32.2642 172.618 32.8517C172.392 33.4391 172.166 33.9814 171.985 34.4333C171.805 34.9303 171.669 35.2919 171.579 35.563C171.353 35.5178 171.172 35.4726 170.992 35.4726C170.811 35.4726 170.63 35.5178 170.404 35.563C171.353 34.1621 172.076 32.7161 172.708 31.2249Z" fill="#27367A"></path></g></g><g id="Group_4"><g id="Group_5"><g id="Group_6"><path id="Vector_15" fill-rule="evenodd" clip-rule="evenodd" d="M26.9249 53.8644C26.428 51.4694 26.2924 48.6225 26.5183 45.8209C26.7442 43.3807 27.196 41.0761 27.8736 39.0878C28.235 38.0937 28.6416 37.0543 29.1837 36.3313C29.5451 35.7891 30.4938 34.9757 30.9004 34.7497C32.346 33.8911 34.5145 33.4844 36.7281 33.3037C39.0321 33.1229 41.1554 32.5807 43.4594 32.7162C44.0466 32.7614 44.6791 32.897 45.2212 33.0326C45.7633 33.1681 46.2151 33.5296 46.712 33.4844C46.8476 33.2585 46.9831 32.7614 46.8476 32.4451C45.2664 31.7673 43.1883 31.9029 41.1554 31.7673C39.6194 31.6769 38.1286 31.7673 36.5474 31.8125C36.0505 31.8125 35.5535 31.948 35.1018 31.7673C35.1921 31.5865 35.4632 31.5414 35.5987 31.451C36.186 31.1798 36.8185 30.9991 37.4961 30.8183C38.761 30.502 39.8001 29.7338 40.8843 29.2367C41.2909 29.056 41.6975 28.9656 42.1944 28.8301C43.0528 28.5589 43.8208 27.9715 44.5888 27.7907C44.9953 27.7003 45.4019 27.61 45.7633 27.5648C46.0796 27.5648 46.8476 27.9263 46.8476 27.2937C46.8476 26.8418 46.3958 26.9773 45.8989 26.9773C45.3568 27.0225 45.0405 26.9773 44.5888 27.0225C43.6852 27.0677 42.9624 27.3388 42.33 27.3388C42.1493 26.661 42.1041 25.9832 42.1041 25.3054C42.1041 24.5824 42.0589 23.8142 42.1944 23.1363C42.3751 22.1874 43.1883 21.1932 43.7756 20.651C44.2274 20.2443 44.9502 19.7472 45.7182 19.5665C46.1248 19.4761 46.3958 19.5665 46.3958 19.2049C46.3958 18.979 46.3958 18.8434 45.8085 18.8886C45.0405 18.9338 44.137 19.4761 43.6852 19.702C43.0076 20.1087 42.0137 20.8769 41.5168 21.4644C40.3422 22.9104 40.6133 25.1698 40.4777 27.7003C38.49 28.2426 36.4571 28.5589 34.6048 29.1916C33.1592 29.6886 31.8943 30.2309 30.7649 30.9087C30.4035 31.1347 30.0872 31.5865 29.6806 31.5865C29.9969 30.9087 30.6745 30.4568 31.2166 29.8694C31.4877 29.5983 31.7136 29.3271 32.0298 29.1012C32.9785 28.4234 34.1531 27.9263 35.3277 27.5196C36.186 27.2033 37.0895 26.8418 37.8575 26.7514C38.49 26.661 38.761 26.9321 38.9417 26.4351C39.1676 25.7121 38.1286 25.7573 37.6316 25.7573C36.9992 25.8024 36.4119 25.9832 35.8698 26.0736C37.2702 24.6275 38.8514 23.6334 39.9356 21.8259C40.6584 20.651 41.2457 18.979 41.7427 17.3974C41.7878 17.1715 42.0137 16.8552 42.0137 16.6292C42.0137 16.3129 41.8782 16.0418 41.6071 16.0418C41.2457 16.0418 41.0199 16.81 40.794 17.2167C40.5229 17.7137 40.2519 18.1204 40.026 18.4367C39.529 19.1598 38.7159 20.2443 38.2189 20.6962C37.722 21.1932 36.9088 21.7355 36.186 22.3681C35.915 22.5941 35.5987 22.9104 35.1921 23.2267C34.8759 23.4978 34.4241 23.9949 34.1079 23.9949C33.7917 23.9949 33.5206 23.7238 33.2496 23.4978C32.5719 22.9104 32.4364 22.4585 32.3009 21.3288C32.2557 20.7865 32.1653 20.1991 32.2105 19.7924C32.3009 18.6175 32.9333 17.6685 33.5206 16.9907C33.6561 16.81 34.2434 16.584 33.9724 16.1773C33.5658 15.5447 32.6171 16.9455 32.2557 16.6744C32.1202 15.3639 31.9846 14.4602 31.4425 13.3757C31.2618 13.0142 30.6293 11.7037 30.0872 12.02C29.7258 12.246 29.9969 12.5623 30.1324 12.7882C30.539 13.5564 30.8552 14.3246 30.9908 15.2736C31.3973 17.8041 30.0421 20.5154 30.6293 22.9556C30.7649 23.4526 30.9908 23.9497 31.2166 24.3564C31.4425 24.8083 31.8943 25.0794 31.9846 25.5313C31.2166 26.3447 30.2228 27.0677 29.4096 27.7907C29.1385 28.0167 28.8675 28.4234 28.4609 28.4234C28.3705 26.0284 28.1447 24.0401 27.6025 22.1874C27.2863 21.2384 26.9249 20.4702 26.5183 19.702C25.9762 18.6627 25.4341 17.7589 25.1179 16.5388C25.0275 16.1773 25.0275 15.861 24.7113 15.9062C24.3047 15.9514 24.5306 16.7648 24.6209 16.9907C24.9372 18.3464 25.2986 19.2049 25.4341 20.651C25.6148 22.4585 26.2924 23.9949 26.2021 25.7573C25.931 25.6217 25.8407 25.3054 25.7052 25.0342C25.2534 24.2208 24.8468 23.4978 24.3047 22.7296C23.627 21.6903 22.588 20.1991 22.9494 18.7531C23.0849 18.3012 23.5367 18.0752 23.4463 17.5782C22.8139 17.0811 22.6332 17.4878 22.3621 17.9397C22.1362 18.3464 21.9104 18.9338 21.7297 19.2953C21.3682 18.9338 20.781 18.3012 19.8774 17.6234C19.5612 17.3522 18.6125 16.5388 18.0252 16.5388C17.709 16.5388 17.4379 16.6292 17.3927 16.9455C17.3476 17.307 17.6638 17.3974 17.8897 17.5782C18.1156 17.7589 18.2963 17.9849 18.5221 18.0752C19.9226 19.5665 21.052 21.5999 22.4073 23.0911C22.588 23.2719 22.9042 23.4526 22.9042 23.769C20.5099 23.0911 17.3927 22.7748 14.1852 23.0008C13.6431 23.046 13.1914 23.046 13.1462 23.3623C13.0558 23.9045 13.598 23.8142 14.0949 23.769C15.2243 23.6334 15.6309 23.6786 16.5796 23.7238C18.8384 23.8142 20.8261 24.3564 22.4073 25.0342C22.6784 25.1698 23.0398 25.2602 23.2205 25.3957C24.395 26.1639 24.7565 27.7907 25.163 29.3723C25.4793 30.502 25.7503 31.6769 25.5696 32.897C25.4793 33.4844 25.2534 34.1171 25.0727 34.6593C24.5306 34.2075 24.2143 33.5748 23.6722 33.1229C23.3108 32.8066 22.9494 32.5807 22.588 32.3547C21.8652 31.8577 21.0972 31.2702 20.5551 30.6376C20.3292 30.2309 20.1937 29.779 19.8774 29.3723C19.5612 28.9204 19.0643 28.5589 18.7029 28.1522C18.3866 27.7907 18.2059 27.3388 17.7542 27.0677C17.5283 27.2485 17.3024 27.2485 17.1669 27.4744C16.9862 27.8359 17.3024 28.0167 17.1669 28.333C15.5405 27.5648 14.0949 26.2995 12.9655 24.6727C12.1975 23.4978 11.565 22.1422 10.797 21.0125C10.3001 20.2443 9.84833 19.8376 9.57728 18.8886C9.44175 18.4367 9.48693 18.0301 9.17069 17.9397C9.03516 17.8945 8.76411 18.0301 8.71893 18.0752C8.44787 18.3464 8.71893 19.2049 8.80928 19.5213C9.03516 20.2443 9.30622 20.8317 9.48693 21.374C9.66763 22.097 9.80316 22.7296 10.0742 23.3171C10.3001 23.9045 10.7067 24.4016 10.8422 24.989C10.3001 24.8535 9.80316 24.4468 9.3514 24.1757C8.85446 23.8593 8.4027 23.543 7.90576 23.2267C6.95706 22.5941 5.91801 21.9614 4.56273 21.9162C4.38203 22.0518 4.38202 22.5941 4.47238 22.8652C4.83379 23.1363 5.28555 23.1363 5.64696 23.3171C6.3246 23.6334 7.00224 24.1305 7.67988 24.5372C8.98999 25.4409 10.2549 26.2995 11.3843 27.3388C11.6554 27.5648 11.9716 27.8359 12.2427 28.0619C12.5589 28.2878 12.9655 28.4685 13.1914 28.7849C12.333 28.7849 11.565 28.9204 11.4747 29.5531C11.294 30.8635 13.2817 31.1347 14.5015 31.2702C14.6822 30.502 14.3208 29.8694 14.0497 29.5079C13.9594 29.3723 13.6883 29.2368 13.7787 29.056C16.6699 30.4116 19.516 32.0836 21.5038 34.2075C21.7748 34.5238 22.1362 34.8401 22.2266 35.2468C21.0068 34.9305 19.4708 34.8853 18.1156 34.6593C17.6186 34.569 17.1217 34.6142 16.6699 34.5238C15.1339 34.1623 14.0045 32.7614 12.83 31.7673C11.3391 30.502 9.48693 29.5531 8.44788 27.9263C8.26717 27.6552 8.17682 27.0225 7.67988 27.2033C7.40882 27.61 7.90576 27.9715 8.08647 28.2426C8.31235 28.5589 8.53823 28.9204 8.76411 29.2367C10.029 31.0443 11.3843 32.8518 12.7396 34.4334C12.8751 34.569 13.1462 34.7045 13.0107 34.9305C9.84833 35.1564 8.08647 33.5748 5.87284 32.6711C5.42108 32.4903 4.11097 31.9029 3.97544 32.5355C3.79474 33.2585 4.56273 33.0778 4.96931 33.1681C6.3246 33.4844 6.91189 34.343 7.90576 35.1112C8.53823 35.6083 9.17069 36.2861 9.93869 36.6476C10.9777 37.1447 12.5589 37.0995 14.1852 37.1447C17.3927 37.2351 20.6454 37.2351 22.8139 38.4552C23.1753 38.6359 23.8529 39.0878 23.8981 39.4041C23.9433 39.6301 23.627 40.2175 23.4915 40.579C22.6784 43.0644 22.2266 45.8209 22.0911 48.8033C22.0911 49.0744 22.0911 49.3455 22.0459 49.6167C22.0459 49.7522 22.0911 49.8878 22.0911 50.0234C22.0911 51.3338 22.1362 52.6443 22.2266 53.9096" fill="#27367A"></path><path id="Vector_16" fill-rule="evenodd" clip-rule="evenodd" d="M36.5926 4.83517C36.4119 5.8745 34.4694 7.77241 33.2044 6.77827C33.0237 6.6427 32.7978 6.2812 32.7978 5.96488C32.6623 4.29291 35.4632 3.79584 36.5926 4.83517Z" fill="#E8AA10"></path><path id="Vector_17" fill-rule="evenodd" clip-rule="evenodd" d="M15.6761 9.30891C14.5015 9.03778 13.1914 8.26958 12.7396 7.13987C12.1975 5.8746 13.1462 4.06707 14.7274 4.74489C16.0375 5.28715 16.6248 7.99845 15.6761 9.30891Z" fill="#E8AA10"></path><path id="Vector_18" fill-rule="evenodd" clip-rule="evenodd" d="M16.6248 5.73904C16.6699 5.37753 17.1217 5.24196 17.4831 5.06121C18.0252 4.79008 18.477 4.56414 19.2901 4.65452C19.8323 4.69971 20.4195 4.97084 20.6906 5.33234C21.052 5.78422 21.1875 7.00431 20.4647 7.18506C20.0581 7.32063 19.516 7.23025 19.245 7.13987C18.5222 6.91393 18.0252 6.10054 17.3476 5.91979C17.1217 5.82941 16.8958 5.91979 16.6248 5.73904Z" fill="#E8AA10"></path><path id="Vector_19" fill-rule="evenodd" clip-rule="evenodd" d="M11.1132 4.79004C11.1132 5.96493 10.4808 6.95908 9.03512 6.91389C8.85441 6.73314 8.53818 6.68795 8.40265 6.41682C8.17677 5.82937 8.53818 5.15155 9.03512 4.97079C9.71276 5.01598 10.6615 4.97079 10.9777 4.83523C11.0229 4.79004 11.068 4.79004 11.1132 4.79004Z" fill="#E8AA10"></path><path id="Vector_20" fill-rule="evenodd" clip-rule="evenodd" d="M25.931 5.82937C25.7051 6.14569 25.2534 6.32644 24.8468 6.50719C24.4854 6.68795 23.8981 6.95908 23.4011 6.82351C22.6783 6.64276 22.4976 5.42268 23.0849 5.01598C23.356 4.83523 23.8529 4.79004 24.2143 4.79004C24.9823 4.83523 25.5696 5.3323 25.931 5.82937Z" fill="#E8AA10"></path><path id="Vector_21" fill-rule="evenodd" clip-rule="evenodd" d="M42.6461 7.72727C41.6974 7.50133 40.3873 7.27539 40.0259 6.50719C39.5742 5.55823 40.1615 4.56409 41.3812 4.79003C42.3751 5.01598 43.2786 6.59757 42.6461 7.72727Z" fill="#E8AA10"></path><path id="Vector_22" fill-rule="evenodd" clip-rule="evenodd" d="M27.5122 5.01591C28.6416 4.6544 30.4938 4.97072 30.8101 6.10043C31.0359 6.82344 30.6745 7.50126 30.0421 7.59164C28.5964 7.81758 27.5122 6.10043 27.5122 5.01591Z" fill="#E8AA10"></path><path id="Vector_23" fill-rule="evenodd" clip-rule="evenodd" d="M43.4142 5.55811C44.3629 4.51878 47.209 4.65434 47.1638 6.23593C47.1638 6.86857 46.5765 7.32045 45.944 7.32045C45.0857 7.32045 44.5888 6.55225 44.0467 6.10037C43.8208 5.91961 43.5045 5.82924 43.4142 5.55811Z" fill="#E8AA10"></path><path id="Vector_24" fill-rule="evenodd" clip-rule="evenodd" d="M4.92418 5.3323C4.92418 5.28711 4.92418 5.28711 4.96936 5.28711C5.69218 5.51305 6.50535 5.73899 7.00229 6.32644C7.40887 6.77832 7.90581 7.86284 7.36369 8.45029C7.04746 8.8118 6.09876 9.03774 5.60183 8.67623C5.15006 8.31472 5.01454 7.27539 4.87901 6.37163C4.83383 5.96493 4.6983 5.73899 4.83383 5.42267C4.83383 5.3323 4.87901 5.3323 4.92418 5.3323Z" fill="#E8AA10"></path><path id="Vector_25" fill-rule="evenodd" clip-rule="evenodd" d="M35.7794 8.5859C35.7794 8.31477 36.0053 7.86288 36.186 7.411C36.5474 6.59761 36.9992 5.28715 38.3996 5.60347C38.9417 5.73904 39.3483 6.32648 39.0773 7.09468C38.7159 8.04364 37.2251 8.99259 35.7794 8.5859Z" fill="#E8AA10"></path><path id="Vector_26" fill-rule="evenodd" clip-rule="evenodd" d="M32.5719 7.23025C32.5719 7.18506 32.5719 7.18506 32.6171 7.18506C32.9785 7.27544 33.7465 7.90807 34.1982 8.40514C34.65 8.9474 34.9662 9.67041 34.8759 10.8001C34.5596 11.252 34.3789 11.8395 33.8368 11.9298C33.0688 12.1106 32.4364 11.6135 32.1653 11.252C31.3973 10.1223 32.1201 8.13401 32.5719 7.23025Z" fill="#E8AA10"></path><path id="Vector_27" fill-rule="evenodd" clip-rule="evenodd" d="M10.8873 7.23022C11.565 7.50135 13.1461 7.54654 12.8299 8.72144C12.5589 9.94152 10.2097 8.45031 10.8873 7.23022Z" fill="#E8AA10"></path><path id="Vector_28" fill-rule="evenodd" clip-rule="evenodd" d="M21.5489 7.54639C21.5941 7.54639 21.6393 7.54639 21.6393 7.54639C21.82 7.99827 21.5489 8.58572 21.323 9.0376C20.8261 10.0769 20.0581 11.0711 18.3866 10.8903C17.5734 10.6192 17.212 9.48948 17.7541 8.67609C18.5221 7.54639 20.6002 8.2694 21.5489 7.54639Z" fill="#E8AA10"></path><path id="Vector_29" fill-rule="evenodd" clip-rule="evenodd" d="M42.1041 10.7549C42.4655 9.67038 43.0077 7.81766 44.4081 7.6369C45.0858 7.54653 45.7634 7.86284 46.0796 8.4051C46.2152 10.3482 44.905 10.8905 42.9625 10.8905C42.6914 10.8905 42.33 10.9808 42.1041 10.7549Z" fill="#E8AA10"></path><path id="Vector_30" fill-rule="evenodd" clip-rule="evenodd" d="M8.71892 7.68213C10.029 7.95326 12.1523 9.89635 11.3843 11.7491C11.0681 12.6077 9.80314 12.9692 8.89962 12.3365C7.90575 11.6135 7.63469 8.72146 8.71892 7.68213Z" fill="#E8AA10"></path><path id="Vector_31" fill-rule="evenodd" clip-rule="evenodd" d="M24.7565 7.8627C26.3377 7.68195 27.6478 8.13383 27.6478 9.67023C27.3767 10.0769 27.0153 10.4384 26.4732 10.3932C25.9763 10.3481 25.6149 9.85099 25.3438 9.35392C25.0276 8.85685 24.7565 8.31459 24.6662 7.95308C24.621 7.8627 24.6662 7.8627 24.7565 7.8627Z" fill="#E8AA10"></path><path id="Vector_32" fill-rule="evenodd" clip-rule="evenodd" d="M41.7427 8.17912C41.6524 9.26364 41.0651 10.8452 39.8905 11.026C38.8515 11.1615 38.1286 10.303 38.5352 9.26364C38.8515 8.49544 40.0712 8.17912 41.1103 8.13393C41.291 8.08874 41.562 7.95318 41.7427 8.17912Z" fill="#E8AA10"></path><path id="Vector_33" fill-rule="evenodd" clip-rule="evenodd" d="M28.8223 8.17905C29.6354 8.13386 30.9004 9.08281 31.0811 9.71545C31.3521 10.6192 30.81 11.3422 30.0872 11.3874C28.7771 11.4326 28.1446 9.57988 28.6416 8.3598C28.6867 8.22423 28.7319 8.17905 28.8223 8.17905Z" fill="#E8AA10"></path><path id="Vector_34" fill-rule="evenodd" clip-rule="evenodd" d="M22.2266 8.58569C23.0849 8.58569 24.9823 9.44427 25.0275 10.6192C25.0727 11.4326 24.3047 12.2459 23.2656 11.7941C22.3621 11.3874 21.8652 9.85097 22.1814 8.58569C22.1814 8.58569 22.1814 8.58569 22.2266 8.58569Z" fill="#E8AA10"></path><path id="Vector_35" fill-rule="evenodd" clip-rule="evenodd" d="M7.54432 12.2008C6.18904 12.6979 4.33681 11.8845 4.15611 10.7096C4.02058 9.94139 4.56269 9.128 5.28551 9.17319C6.68597 9.21838 7.72502 10.7096 7.54432 12.2008Z" fill="#E8AA10"></path><path id="Vector_36" fill-rule="evenodd" clip-rule="evenodd" d="M12.2878 10.4837C12.5589 10.1222 13.3721 9.89626 14.0045 9.85107C15.1339 9.80588 16.4892 10.3933 16.5344 11.2971C16.5796 12.0201 15.8568 13.0142 14.8177 12.7883C14.3208 12.6979 13.8238 12.1105 13.4172 11.7038C12.9655 11.2519 12.4685 10.8904 12.2878 10.4837Z" fill="#E8AA10"></path><path id="Vector_37" fill-rule="evenodd" clip-rule="evenodd" d="M36.1408 10.0318C36.1408 9.98657 36.1408 9.98657 36.186 9.98657C36.954 10.3933 38.6255 10.9807 38.3544 12.5171C38.2189 13.2401 37.2702 13.692 36.5022 13.1498C35.7794 12.6075 35.7794 11.1615 36.0505 10.1221C36.0505 10.0318 36.0956 10.0318 36.1408 10.0318Z" fill="#E8AA10"></path><path id="Vector_38" fill-rule="evenodd" clip-rule="evenodd" d="M21.9104 12.7431C21.4587 12.6979 20.7358 12.2008 20.7358 11.6585C20.7358 11.2067 21.0972 10.9807 21.4135 10.9807C22.0459 11.0259 22.4977 12.246 21.9104 12.7431Z" fill="#E8AA10"></path><path id="Vector_39" fill-rule="evenodd" clip-rule="evenodd" d="M25.6147 13.195C25.4792 12.2461 26.4279 10.7549 27.5573 11.2519C28.0091 11.4327 28.1446 12.2009 27.7832 12.698C27.4218 13.195 26.3376 13.6017 25.6147 13.195Z" fill="#E8AA10"></path><path id="Vector_40" fill-rule="evenodd" clip-rule="evenodd" d="M42.4655 14.2343C42.1493 14.2794 41.7427 14.3246 41.3813 14.2343C40.6133 14.0987 39.8001 13.3757 39.6194 12.8786C39.1677 11.523 40.6585 10.7999 41.562 11.523C42.1945 12.0652 42.7366 13.3757 42.4655 14.2343Z" fill="#E8AA10"></path><path id="Vector_41" fill-rule="evenodd" clip-rule="evenodd" d="M43.2787 15.1832C43.5046 13.8275 44.0919 11.9296 45.3568 11.4326C45.9441 11.2066 47.1638 11.3422 47.4801 11.8393C47.7963 12.2911 47.7963 13.0593 47.5704 13.6016C47.0735 14.7765 45.0406 15.4995 43.2787 15.1832Z" fill="#E8AA10"></path><path id="Vector_42" fill-rule="evenodd" clip-rule="evenodd" d="M20.1937 15.3189C19.1094 15.2286 17.8445 14.37 17.6638 13.2403C17.4831 12.1106 18.2511 11.3424 19.245 11.5683C20.284 11.8394 21.052 14.0988 20.1937 15.3189Z" fill="#E8AA10"></path><path id="Vector_43" fill-rule="evenodd" clip-rule="evenodd" d="M35.7342 15.4996C35.1469 15.5448 34.5596 15.3189 33.9272 15.0929C33.4302 14.9122 32.6622 14.5958 32.5267 14.144C32.3008 13.4661 32.6622 12.8787 32.9333 12.6528C33.5206 12.1557 34.4693 12.6076 34.9662 13.0594C35.5987 13.7373 35.7342 14.4603 35.7342 15.4996Z" fill="#E8AA10"></path><path id="Vector_44" fill-rule="evenodd" clip-rule="evenodd" d="M21.9556 15.9967C21.3683 15.59 21.3231 14.8218 21.5038 14.2796C21.7748 13.3758 22.9946 12.9691 23.8078 12.698C24.2595 12.5172 24.2144 13.7825 24.1692 14.144C24.0337 15.2285 23.3108 16.2227 21.9556 15.9967Z" fill="#E8AA10"></path><path id="Vector_45" fill-rule="evenodd" clip-rule="evenodd" d="M9.44175 13.6468C9.3514 14.9573 8.26717 16.5841 6.91189 16.81C5.91801 16.9908 4.87896 16.2678 5.15002 15.0477C5.33072 14.2343 6.59565 13.3757 7.81541 13.3305C8.4027 13.2853 9.03516 13.3305 9.44175 13.6468Z" fill="#E8AA10"></path><path id="Vector_46" fill-rule="evenodd" clip-rule="evenodd" d="M13.6883 13.5565C14.4111 15.2284 13.7334 17.6234 12.333 18.1205C11.2036 18.5272 10.029 17.6686 10.1645 16.4485C10.3452 14.9573 12.1071 13.4209 13.6883 13.5565Z" fill="#E8AA10"></path><path id="Vector_47" fill-rule="evenodd" clip-rule="evenodd" d="M17.1217 13.5112C17.709 14.5957 17.0765 16.4033 16.173 16.7648C14.9984 17.2619 14.2756 16.2677 14.637 15.0928C14.908 14.1891 16.3085 13.7824 17.0313 13.5112C17.0313 13.5112 17.0765 13.5112 17.1217 13.5112Z" fill="#E8AA10"></path><path id="Vector_48" fill-rule="evenodd" clip-rule="evenodd" d="M29.5903 14.415C29.5451 15.0024 29.003 15.7706 28.4157 16.1773C27.6477 16.6744 26.3828 16.584 26.1117 15.7706C25.7051 13.7371 28.5512 13.6016 29.5903 14.415Z" fill="#E8AA10"></path><path id="Vector_49" fill-rule="evenodd" clip-rule="evenodd" d="M39.2128 14.0083C39.2128 13.9631 39.3031 13.9631 39.3483 13.9631C40.5229 15.5899 39.3935 18.7531 37.7671 18.7531C36.9088 18.7531 36.0956 17.9397 36.3667 16.9004C36.457 16.4485 37.0895 16.087 37.5412 15.7255C37.9478 15.4092 38.5351 15.0928 38.8513 14.6861C38.9869 14.4602 38.9869 14.1439 39.2128 14.0083Z" fill="#E8AA10"></path><path id="Vector_50" fill-rule="evenodd" clip-rule="evenodd" d="M46.441 16.6745C46.441 16.9456 46.0796 17.3523 45.7633 17.6686C45.3568 18.0753 44.7243 18.6176 43.8208 18.4368C43.4142 18.3465 42.9172 17.9398 42.8721 17.4879C42.8269 17.1264 43.0979 16.6745 43.2787 16.4938C44.0466 15.7707 45.7182 16.1322 46.441 16.6745Z" fill="#E8AA10"></path><path id="Vector_51" fill-rule="evenodd" clip-rule="evenodd" d="M26.8346 17.8041C27.8285 17.1263 30.2228 17.3071 29.9969 18.979C29.7259 19.4309 29.3645 19.6568 28.8223 19.6117C28.0995 19.5213 27.196 18.3464 26.8346 17.8041Z" fill="#E8AA10"></path><path id="Vector_52" fill-rule="evenodd" clip-rule="evenodd" d="M33.5658 18.8436C33.7465 18.2109 35.0566 17.4427 35.7794 17.8946C35.9601 18.0302 36.1408 18.3465 36.1408 18.6176C36.0957 19.7473 34.0176 19.657 33.5658 18.8436Z" fill="#E8AA10"></path><path id="Vector_53" fill-rule="evenodd" clip-rule="evenodd" d="M7.95093 20.7415C7.6347 20.9222 7.09258 20.9222 6.73118 20.877C5.46624 20.7867 4.24649 19.8829 4.47237 18.6176C4.56272 17.985 5.15001 17.7591 6.05353 17.8494C7.09258 18.4369 7.72505 19.3858 7.95093 20.7415Z" fill="#E8AA10"></path><path id="Vector_54" fill-rule="evenodd" clip-rule="evenodd" d="M43.5498 18.6176C43.6853 19.2954 43.1884 20.2895 42.3752 20.1991C41.0199 20.1088 42.2848 17.9397 43.5498 18.6176Z" fill="#E8AA10"></path><path id="Vector_55" fill-rule="evenodd" clip-rule="evenodd" d="M16.8959 22.3681C16.6248 21.9614 15.9923 21.1029 15.7665 20.3347C15.6761 20.0183 15.5406 19.6116 15.7213 19.2501C15.9472 18.7983 16.941 18.3464 17.4831 18.7531C18.477 19.4761 17.8897 22.0066 16.8959 22.3681Z" fill="#E8AA10"></path><path id="Vector_56" fill-rule="evenodd" clip-rule="evenodd" d="M15.1339 21.3741C14.9532 21.6 14.5466 21.6904 14.2755 21.7356C12.8751 21.9164 11.4294 21.1933 11.4294 19.9733C11.4294 19.2503 12.0619 18.6628 13.101 18.8436C14.0948 19.0243 15.1791 20.2896 15.1339 21.3741Z" fill="#E8AA10"></path><path id="Vector_57" fill-rule="evenodd" clip-rule="evenodd" d="M36.3667 20.9674C36.0053 21.9615 35.4632 22.7749 34.0627 22.6845C33.7917 22.4586 33.5206 22.3682 33.4303 22.0519C32.9785 20.6511 35.5084 20.0184 36.3667 20.9674Z" fill="#E8AA10"></path><path id="Vector_58" fill-rule="evenodd" clip-rule="evenodd" d="M44.3177 22.775C44.2273 21.7809 45.5374 20.0186 46.7572 20.7416C46.8475 20.7868 47.0734 21.0579 47.1186 21.2386C47.3896 22.5943 45.6278 23.1365 44.3177 22.775Z" fill="#E8AA10"></path><path id="Vector_59" fill-rule="evenodd" clip-rule="evenodd" d="M29.003 20.6963C29.9517 20.6963 30.4938 23.0461 29.3192 23.2268C28.7771 23.3172 28.3705 22.8201 28.3254 22.2327C28.2802 21.6001 28.6868 21.103 28.9127 20.7415C28.9127 20.6963 29.003 20.6963 29.003 20.6963Z" fill="#E8AA10"></path><path id="Vector_60" fill-rule="evenodd" clip-rule="evenodd" d="M19.4709 20.9222C20.2841 20.8319 20.9165 21.5549 20.4196 22.2327C20.2389 22.4586 19.7871 22.6394 19.3805 22.6394C18.8836 22.6394 18.0704 22.2779 18.0252 21.9616C17.9801 21.6904 18.5222 21.2837 18.6577 21.1934C18.8836 21.0126 19.1547 20.9674 19.4709 20.9222Z" fill="#E8AA10"></path><path id="Vector_61" fill-rule="evenodd" clip-rule="evenodd" d="M43.6853 23.5432C44.7243 23.7692 46.3959 23.6336 46.5314 24.7633C46.5766 25.2152 46.4862 25.5315 46.1248 25.7123C44.9954 26.2093 43.4594 24.6729 43.5949 23.5884C43.6401 23.5884 43.6401 23.5432 43.6853 23.5432Z" fill="#E8AA10"></path><path id="Vector_62" fill-rule="evenodd" clip-rule="evenodd" d="M30.3583 23.6336C30.3583 23.5884 30.4487 23.5884 30.4938 23.5884C31.1715 24.5373 30.9004 26.8871 29.5451 26.7516C29.0934 26.7064 28.6416 26.2093 28.732 25.5315C28.8223 24.6729 29.8614 24.447 30.2228 23.7239C30.268 23.6336 30.3131 23.6788 30.3583 23.6336Z" fill="#E8AA10"></path><path id="Vector_63" fill-rule="evenodd" clip-rule="evenodd" d="M18.7932 26.6611C18.3414 26.4803 17.7542 25.8929 17.7993 25.1699C17.8445 24.718 18.2059 24.3113 18.5673 24.3565C18.6577 24.3565 19.0643 24.5824 19.1546 24.718C19.5612 25.2602 19.1998 26.2996 18.7932 26.6611Z" fill="#E8AA10"></path><path id="Vector_64" fill-rule="evenodd" clip-rule="evenodd" d="M15.5857 24.7632C16.3085 24.6728 17.3927 25.0343 17.4831 25.7122C17.5734 26.2996 17.1216 26.8871 16.6247 26.9322C15.9471 27.0226 15.3146 26.2092 14.8628 25.7573C14.8177 25.7122 14.4111 25.441 14.4563 25.2603C14.5014 24.8536 15.2243 24.8084 15.5857 24.7632Z" fill="#E8AA10"></path><path id="Vector_65" fill-rule="evenodd" clip-rule="evenodd" d="M7.54433 25.4862C7.54433 25.8025 7.27327 25.9832 7.09256 26.2544C6.73115 26.7514 6.18904 27.5648 5.28552 27.5648C4.78858 27.5648 4.20129 27.1581 4.11094 26.7514C3.74953 25.0795 6.36975 24.6276 7.54433 25.4862Z" fill="#E8AA10"></path><path id="Vector_66" fill-rule="evenodd" clip-rule="evenodd" d="M42.8721 26.8418C42.9172 26.5255 42.9624 26.0736 43.2335 25.7573C43.6401 25.3054 44.4984 25.3506 44.5888 25.8929C44.6339 26.6159 43.6401 27.2033 42.8721 26.8418Z" fill="#E8AA10"></path><path id="Vector_67" fill-rule="evenodd" clip-rule="evenodd" d="M23.0397 26.3447C22.7687 27.2937 21.82 28.6493 20.3744 28.4686C19.8774 28.4234 19.2901 27.9715 19.2901 27.3388C19.245 25.8024 21.8652 25.3054 23.0397 26.3447Z" fill="#E8AA10"></path><path id="Vector_68" fill-rule="evenodd" clip-rule="evenodd" d="M22.4976 30.5022C22.2266 30.0051 22.1362 29.4177 22.1814 28.6495C22.4976 27.7005 23.8077 27.7457 23.9433 28.6947C24.0788 29.5984 23.1753 30.3215 22.4976 30.5022Z" fill="#E8AA10"></path><path id="Vector_69" fill-rule="evenodd" clip-rule="evenodd" d="M3.97559 29.7791C4.11111 29.1012 4.96946 27.8812 6.05369 28.1071C6.27957 28.1523 6.64098 28.4686 6.73133 28.7397C7.00239 30.0502 4.92428 30.5925 3.97559 29.7791Z" fill="#E8AA10"></path><path id="Vector_70" fill-rule="evenodd" clip-rule="evenodd" d="M43.8208 30.728C43.7305 29.7338 45.5827 28.7397 46.3959 29.5079C46.7573 29.8242 46.7121 30.7731 46.17 30.9991C45.5827 31.2702 44.4081 30.8635 43.8208 30.728Z" fill="#E8AA10"></path><path id="Vector_71" fill-rule="evenodd" clip-rule="evenodd" d="M43.098 29.7339C42.9173 30.2762 42.6462 31.0896 42.059 31.2703C41.4717 31.4511 40.8844 31.2251 40.8392 30.7732C40.7037 29.7791 42.1945 29.1917 43.098 29.7339Z" fill="#E8AA10"></path><path id="Vector_72" fill-rule="evenodd" clip-rule="evenodd" d="M24.6661 30.1406C24.8468 30.4118 24.9372 31.18 24.8017 31.677C24.7113 32.1289 24.3499 32.3097 24.124 32.4904C23.8981 32.4904 23.6723 32.4904 23.4464 32.4904C22.4525 31.677 23.6271 30.2762 24.6661 30.1406Z" fill="#E8AA10"></path><path id="Vector_73" fill-rule="evenodd" clip-rule="evenodd" d="M5.64697 31.0445C5.91803 30.6378 6.59567 30.5022 7.13778 30.4119C8.40272 30.2763 9.80317 31.1349 9.758 32.129C9.758 32.9876 8.8093 33.4395 7.95095 33.1683C7.00226 32.8068 6.18909 31.5416 5.64697 31.0445Z" fill="#E8AA10"></path><path id="Vector_74" fill-rule="evenodd" clip-rule="evenodd" d="M16.444 33.8008C15.9471 33.5297 15.0887 32.8518 15.3146 31.9029C15.5405 30.8635 16.9861 31.0895 17.0765 32.2644C17.0765 32.8518 16.7151 33.4393 16.444 33.8008Z" fill="#E8AA10"></path><path id="Vector_75" fill-rule="evenodd" clip-rule="evenodd" d="M20.1936 33.8912C19.6063 34.7046 17.5282 34.6594 17.6186 33.4845C17.6638 32.9423 18.1607 32.6711 18.9739 32.7615C19.4708 33.0326 19.9226 33.349 20.1936 33.8912Z" fill="#E8AA10"></path><path id="Vector_76" fill-rule="evenodd" clip-rule="evenodd" d="M4.47233 33.7556C4.83373 33.8008 5.37585 34.2075 5.4662 34.569C5.55655 35.0209 5.37585 35.3372 5.05962 35.3824C4.29162 35.518 3.97539 34.3883 4.47233 33.7556Z" fill="#E8AA10"></path><path id="Vector_77" fill-rule="evenodd" clip-rule="evenodd" d="M44.2725 34.1172C44.0918 34.7498 43.6852 35.6988 42.9172 35.7891C42.4654 35.8343 42.0589 35.6084 41.9685 35.2921C41.7426 34.2075 43.1883 33.6201 44.2725 34.1172Z" fill="#E8AA10"></path><path id="Vector_78" fill-rule="evenodd" clip-rule="evenodd" d="M37.4509 34.5238C38.49 33.7556 40.1615 34.7046 40.026 35.8795C39.9356 36.8284 38.761 36.8284 38.2189 36.1958C37.8123 35.7439 37.722 35.0209 37.4509 34.5238Z" fill="#E8AA10"></path><path id="Vector_79" fill-rule="evenodd" clip-rule="evenodd" d="M45.4472 34.795C45.7182 34.7498 45.8086 35.1565 45.8989 35.518C46.0344 36.1054 46.1248 36.964 46.0344 37.7322C45.9441 38.5004 45.6279 39.1782 45.3116 39.4945C44.9502 39.9012 44.2726 40.1724 43.8208 40.082C43.3691 39.9464 43.0528 39.1782 43.0076 38.7263C42.6914 36.4669 44.4081 35.7439 45.4472 34.795Z" fill="#E8AA10"></path><path id="Vector_80" fill-rule="evenodd" clip-rule="evenodd" d="M6.05364 35.3372C6.05364 35.3372 6.09882 35.292 6.144 35.292C6.41505 35.292 6.59576 35.9246 6.77646 36.3765C7.09269 37.3255 7.2734 38.6359 6.68611 39.3589C6.41505 39.7204 5.78259 40.082 5.15012 40.0368C4.47248 39.9464 3.97554 39.2234 3.97554 38.4552C3.93037 37.0091 5.1953 36.0602 6.00847 35.4276C6.00847 35.3372 5.96329 35.3372 6.05364 35.3372Z" fill="#E8AA10"></path><path id="Vector_81" fill-rule="evenodd" clip-rule="evenodd" d="M41.2005 35.5181C41.2005 35.4729 41.2457 35.4729 41.2909 35.4729C41.7878 35.9248 42.104 37.0997 42.0137 38.0486C41.9233 38.9072 41.2005 39.9465 40.1163 39.585C39.4838 39.4043 39.2128 38.5005 39.4838 37.7775C39.8 37.0997 40.8843 36.2863 41.2005 35.5181Z" fill="#E8AA10"></path><path id="Vector_82" fill-rule="evenodd" clip-rule="evenodd" d="M33.2044 35.5181C33.2496 35.5181 33.2496 35.5181 33.2496 35.5633C33.5658 35.8796 33.4755 36.467 33.4755 36.9189C33.3851 37.913 32.7075 38.862 31.3974 38.7264C30.539 38.3197 30.7649 37.1448 31.2618 36.5574C31.7136 36.0151 32.6623 35.8344 33.2044 35.5181Z" fill="#E8AA10"></path><path id="Vector_83" fill-rule="evenodd" clip-rule="evenodd" d="M34.6952 36.1508C34.8759 35.8796 35.3277 35.8796 35.6439 35.8796C36.6378 35.8796 37.9479 36.5123 37.9027 37.3708C37.9027 37.8679 37.3154 38.4554 36.7281 38.4554C36.1408 38.4554 35.8698 37.9583 35.5084 37.4612C35.1469 37.0545 34.7404 36.5575 34.6952 36.1508Z" fill="#E8AA10"></path><path id="Vector_84" fill-rule="evenodd" clip-rule="evenodd" d="M8.89962 36.9641C9.08032 37.5967 8.35751 38.6361 7.95092 38.5457C7.54434 38.5005 7.31845 37.2352 7.58951 36.7833C7.90574 36.2863 8.62856 36.3766 8.89962 36.9641Z" fill="#E8AA10"></path><path id="Vector_85" fill-rule="evenodd" clip-rule="evenodd" d="M10.2549 38.1389C10.6163 38.3197 10.526 38.8167 10.526 39.1331C10.526 40.1272 10.526 40.9406 10.1646 41.6184C9.84834 42.2059 9.21588 42.8837 8.76412 43.1096C7.54436 43.7423 5.82767 42.2962 6.46014 40.805C6.86672 39.7657 9.35141 38.8167 10.2098 38.1841C10.2098 38.1389 10.2098 38.1389 10.2549 38.1389Z" fill="#E8AA10"></path><path id="Vector_86" fill-rule="evenodd" clip-rule="evenodd" d="M34.7856 38.4102C36.0054 38.9072 37.0896 41.5733 35.915 43.2001C35.6439 43.5616 35.1018 44.0587 34.2435 43.8779C33.5658 43.7424 33.1141 43.0645 33.0689 42.4771C32.9334 40.8503 34.6501 40.1273 34.6501 38.5457C34.7404 38.5005 34.7856 38.5005 34.7856 38.4102Z" fill="#E8AA10"></path><path id="Vector_87" fill-rule="evenodd" clip-rule="evenodd" d="M13.2817 38.9976C13.2817 38.9976 13.3269 38.9524 13.3721 38.9524C13.7786 38.9976 13.8238 39.4947 13.7335 40.2629C13.6431 41.1214 13.1462 42.0252 12.5589 42.206C12.3782 42.2511 11.6102 42.3415 11.3843 42.1608C10.9777 41.8444 10.9325 41.1666 11.0681 40.6244C11.2939 39.7206 12.4234 39.3591 13.1913 39.088C13.1913 39.0428 13.2365 38.9976 13.2817 38.9976Z" fill="#E8AA10"></path><path id="Vector_88" fill-rule="evenodd" clip-rule="evenodd" d="M22.0911 41.2118C21.6845 42.0251 20.4648 42.1607 19.8775 41.4377C19.6064 41.1214 19.5161 40.6695 19.2902 40.2628C19.0643 39.8561 18.7029 39.6302 18.6125 39.2687C20.1937 38.5457 22.2266 39.2687 22.0911 41.2118Z" fill="#E8AA10"></path><path id="Vector_89" fill-rule="evenodd" clip-rule="evenodd" d="M15.4049 39.3139C16.4892 39.2688 17.3475 39.4947 18.0252 40.0821C18.5221 40.4888 18.9739 41.1667 18.9739 41.8897C18.9287 43.1549 17.2572 43.6068 16.3536 42.7483C15.9019 42.3416 14.8177 40.4888 15.2694 39.4495C15.2694 39.3591 15.3146 39.3139 15.4049 39.3139Z" fill="#E8AA10"></path><path id="Vector_90" fill-rule="evenodd" clip-rule="evenodd" d="M29.8162 39.9465C30.7197 38.7716 33.1592 39.4946 33.0237 40.9859C32.9785 41.5281 32.5267 41.8896 31.8943 41.7992C31.2166 41.7089 30.9907 40.8051 30.4486 40.3532C30.1776 40.1725 29.9517 40.2177 29.8162 39.9465Z" fill="#E8AA10"></path><path id="Vector_91" fill-rule="evenodd" clip-rule="evenodd" d="M37.5865 39.8108C38.3996 40.0819 39.258 39.7656 39.9808 39.856C40.6584 39.9915 41.3361 40.579 41.4716 41.2116C41.7427 42.4769 40.6584 43.2451 39.3935 42.7932C38.4448 42.4317 37.5413 41.0309 37.4509 39.9464C37.4509 39.9012 37.5413 39.856 37.5865 39.8108Z" fill="#E8AA10"></path><path id="Vector_92" fill-rule="evenodd" clip-rule="evenodd" d="M4.24648 40.9857C4.24648 40.8501 4.33683 40.805 4.38201 40.7598C5.10483 40.7598 5.96317 41.0761 5.96317 41.7539C6.00835 42.251 5.60176 42.5673 5.10483 42.4317C4.56271 42.2962 4.2013 41.528 4.24648 40.9857Z" fill="#E8AA10"></path><path id="Vector_93" fill-rule="evenodd" clip-rule="evenodd" d="M46.9379 41.1214C46.9379 41.8444 46.6669 42.7934 46.1699 43.3808C45.4471 44.2846 43.8208 44.9624 42.8721 43.7423C42.8721 43.3808 42.8721 43.0193 42.8721 42.6578C43.1883 41.8896 43.6852 41.3022 44.6339 41.1214C45.3116 40.9407 46.2603 40.9859 46.9379 41.1214Z" fill="#E8AA10"></path><path id="Vector_94" fill-rule="evenodd" clip-rule="evenodd" d="M30.9005 42.4771C30.8553 42.7482 30.5391 42.6127 30.268 42.703C29.9066 42.7934 29.5452 42.9742 29.1838 42.929C28.8224 42.8386 28.5513 42.5223 28.5965 42.1156C28.732 40.9407 30.9456 41.483 30.9005 42.4771Z" fill="#E8AA10"></path><path id="Vector_95" fill-rule="evenodd" clip-rule="evenodd" d="M12.6945 43.3807C12.7848 43.0192 13.1914 42.6125 13.5076 42.4318C13.7787 42.2962 14.1853 42.2058 14.637 42.2058C14.9081 42.4769 15.2243 42.5221 15.2695 42.8836C15.4954 44.1941 13.2817 44.1941 12.6945 43.3807Z" fill="#E8AA10"></path><path id="Vector_96" fill-rule="evenodd" clip-rule="evenodd" d="M10.2549 42.4319C10.3001 42.4319 10.3453 42.4319 10.3453 42.4319C10.8874 42.6126 11.7457 43.2905 11.4747 44.0135C11.4295 44.149 11.2036 44.375 11.0229 44.4202C10.0742 44.6461 9.75799 43.2453 10.2549 42.4319Z" fill="#E8AA10"></path><path id="Vector_97" fill-rule="evenodd" clip-rule="evenodd" d="M5.42113 42.8386C6.55053 43.2905 8.1317 44.375 7.95099 46.1826C7.86064 46.9056 7.3637 47.4478 6.64089 47.5382C4.65314 47.719 4.24655 44.4654 5.24043 42.929C5.33078 42.929 5.37596 42.8838 5.42113 42.8386Z" fill="#E8AA10"></path><path id="Vector_98" fill-rule="evenodd" clip-rule="evenodd" d="M20.5099 43.0645C20.5551 43.0645 20.6003 43.0645 20.6003 43.0645C20.8261 43.3808 20.781 43.8327 20.6906 44.2393C20.4647 45.5046 19.1546 47.2218 17.7542 47.1314C16.941 47.0862 16.1278 46.2728 16.3537 45.0979C16.6699 43.6067 19.1998 43.6067 20.5099 43.0645Z" fill="#E8AA10"></path><path id="Vector_99" fill-rule="evenodd" clip-rule="evenodd" d="M38.4899 43.1096C38.4899 43.0645 38.4899 43.0645 38.5351 43.0645C38.5803 43.0645 38.5803 43.0645 38.5803 43.1096C38.8513 43.2904 38.9869 43.7875 39.0772 44.1942C39.2127 44.5557 39.3483 45.0075 39.3934 45.4142C39.4386 46.5891 38.6255 47.764 37.5412 47.5833C36.9539 47.4929 36.5022 46.8151 36.4118 46.2276C36.1859 44.7816 37.6316 43.6519 38.4899 43.1096Z" fill="#E8AA10"></path><path id="Vector_100" fill-rule="evenodd" clip-rule="evenodd" d="M30.6294 43.3355C30.9908 43.5163 30.9456 44.3296 30.8553 44.8267C30.6746 45.6401 29.9066 46.6794 28.8223 46.4987C28.1447 46.3631 27.8736 45.7305 28.0543 44.9623C28.2802 44.0133 29.6807 43.2903 30.6294 43.3355Z" fill="#E8AA10"></path><path id="Vector_101" fill-rule="evenodd" clip-rule="evenodd" d="M31.4878 43.7874C31.4878 43.697 31.5329 43.6519 31.5781 43.6519C32.5268 43.7422 34.0628 44.4652 34.1983 45.4142C34.3338 46.3632 33.6562 47.0862 32.6623 46.7698C31.7588 46.4535 31.307 45.0075 31.4878 43.7874Z" fill="#E8AA10"></path><path id="Vector_102" fill-rule="evenodd" clip-rule="evenodd" d="M9.35138 46.6795C8.80927 46.4084 7.95092 45.5498 8.26715 44.646C8.40268 44.2845 8.80927 43.9682 9.30621 44.0586C10.3001 44.3297 9.98385 46.1824 9.35138 46.6795Z" fill="#E8AA10"></path><path id="Vector_103" fill-rule="evenodd" clip-rule="evenodd" d="M40.1615 44.1941C41.4716 43.5163 43.8208 45.3238 42.8269 46.7247C42.4203 47.3121 41.3361 47.1766 40.9295 46.5891C40.6133 46.1372 40.6133 45.5046 40.4326 45.0075C40.3422 44.7364 39.9357 44.3297 40.1615 44.1941Z" fill="#E8AA10"></path><path id="Vector_104" fill-rule="evenodd" clip-rule="evenodd" d="M15.7212 44.8721C15.405 45.7306 14.5014 46.8604 13.4624 47.1767C12.5589 47.4478 11.3843 47.267 11.0229 46.3633C10.8873 44.8269 11.565 44.1491 13.1461 44.3298C13.6431 44.375 14.2304 44.6913 14.7273 44.7365C15.0887 44.8269 15.405 44.6461 15.7212 44.8721Z" fill="#E8AA10"></path><path id="Vector_105" fill-rule="evenodd" clip-rule="evenodd" d="M35.1018 46.318C34.3338 45.8209 34.7404 44.1489 35.9149 44.3749C36.8185 45.0979 35.7342 45.9565 35.1018 46.318Z" fill="#E8AA10"></path><path id="Vector_106" fill-rule="evenodd" clip-rule="evenodd" d="M43.9563 45.4594C44.7695 44.7364 46.8476 45.0075 46.8927 46.0921C46.9379 46.5891 46.441 47.1766 45.8989 47.1766C45.4923 47.1766 45.0857 46.7699 44.7695 46.4536C44.4081 46.0921 44.0015 45.8209 43.9563 45.4594Z" fill="#E8AA10"></path></g></g><path id="Vector_107" fill-rule="evenodd" clip-rule="evenodd" d="M22.0008 50.3397H1.26493V1.26527H50.281V50.3397H27.964L28.2351 51.605H51.5911V0H0V51.605H22.0459L22.0008 50.3397Z" fill="#27367A"></path></g></g><defs><clipPath id="clip0_553_17443"><rect width="177" height="54" fill="white"></rect></clipPath></defs></svg>